/* XPM */
static char *_105f3c484194289ebf34c7771bea766xM31p1JClZeHbC7j[] = {
/* columns rows colors chars-per-pixel */
"64 64 245 2 ",
"   c #020202",
".  c #0D0404",
"X  c #0C0906",
"o  c #0D0C0B",
"O  c #050B06",
"+  c #130503",
"@  c #130906",
"#  c #190A06",
"$  c #140B09",
"%  c #1B0E0A",
"&  c #1B0605",
"*  c #0B130B",
"=  c #1D120D",
"-  c #14150C",
";  c #090916",
":  c #0D1612",
">  c #191713",
",  c #210E0A",
"<  c #220703",
"1  c #23120D",
"2  c #2C140D",
"3  c #281809",
"4  c #36160A",
"5  c #241512",
"6  c #2B1A14",
"7  c #2C1E1C",
"8  c #271815",
"9  c #351B14",
"0  c #122415",
"q  c #163016",
"w  c #26270E",
"e  c #2A261B",
"r  c #37251B",
"t  c #2C3412",
"y  c #141A25",
"u  c #1B372A",
"i  c #2C2323",
"p  c #272928",
"a  c #332523",
"s  c #332B2C",
"d  c #392926",
"f  c #233925",
"g  c #3B302E",
"h  c #3A3537",
"j  c #2C2E33",
"k  c #44100C",
"l  c #442619",
"z  c #4A2B13",
"x  c #432B26",
"c  c #48332D",
"v  c #413737",
"b  c #543C34",
"n  c #523029",
"m  c #693829",
"M  c #39461B",
"N  c #204613",
"B  c #194B2E",
"V  c #314E36",
"C  c #2E6929",
"Z  c #434C1E",
"A  c #44571C",
"S  c #435C24",
"D  c #5C4639",
"F  c #524E29",
"G  c #66443A",
"H  c #6D5734",
"J  c #486624",
"K  c #587A28",
"L  c #567230",
"P  c #746F32",
"I  c #253C49",
"U  c #473D41",
"Y  c #1D4145",
"T  c #305344",
"R  c #356F53",
"E  c #3D706F",
"W  c #4B4144",
"Q  c #484445",
"!  c #564946",
"~  c #52574E",
"^  c #694E47",
"/  c #67564A",
"(  c #695B56",
")  c #7A584C",
"_  c #5D6D42",
"`  c #6B624C",
"'  c #696455",
"]  c #756959",
"[  c #76704F",
"{  c #5A5F63",
"}  c #4D666C",
"|  c #72716C",
" . c #9B3520",
".. c #8C6A32",
"X. c #A25F36",
"o. c #D9503D",
"O. c #8B6E50",
"+. c #867769",
"@. c #88776F",
"#. c #A46E76",
"$. c #D57451",
"%. c #E97156",
"&. c #DE685A",
"*. c #448B28",
"=. c #568234",
"-. c #65852B",
";. c #749737",
":. c #699034",
">. c #59BC36",
",. c #4EA32D",
"<. c #7AA736",
"1. c #72B83A",
"2. c #59C135",
"3. c #318D5B",
"4. c #268F66",
"5. c #2BA979",
"6. c #589749",
"7. c #779547",
"8. c #5BAA43",
"9. c #65C443",
"0. c #B39F3D",
"q. c #81AC37",
"w. c #86B73B",
"e. c #9DA437",
"r. c #A1AB3D",
"t. c #CD863B",
"y. c #DEB83A",
"u. c #8CC43D",
"i. c #93CE3F",
"p. c #859A55",
"a. c #8E8D4B",
"s. c #BB984E",
"d. c #87AA47",
"f. c #8BB942",
"g. c #92B054",
"h. c #B3AE48",
"j. c #8A8479",
"k. c #968678",
"l. c #90886C",
"z. c #B18975",
"x. c #91B170",
"c. c #B4B56B",
"v. c #DB8758",
"b. c #CD9255",
"n. c #E9875A",
"m. c #C6B953",
"M. c #D7B457",
"N. c #C88476",
"B. c #D89A7B",
"V. c #D48769",
"C. c #ED946C",
"Z. c #CCB973",
"A. c #F9A578",
"S. c #E7B06F",
"D. c #95C846",
"F. c #97D242",
"G. c #9BD543",
"H. c #9CDB43",
"J. c #9CD54B",
"K. c #98CB51",
"L. c #A2D748",
"P. c #A6D856",
"I. c #B1CA57",
"U. c #88CA6D",
"Y. c #A7D267",
"T. c #ABE15F",
"R. c #FDED53",
"E. c #CDCB69",
"W. c #F6EB6D",
"Q. c #E1C64D",
"!. c #607C83",
"~. c #2F8F89",
"^. c #2AB086",
"/. c #4A8C82",
"(. c #29C290",
"). c #888785",
"_. c #999388",
"`. c #9B9A95",
"'. c #9D8F84",
"]. c #A6998A",
"[. c #A19D9A",
"{. c #A49E91",
"}. c #99AF87",
"|. c #ABA38D",
" X c #ABA495",
".X c #AAA59A",
"XX c #A8A59A",
"oX c #B6AB9A",
"OX c #A9B58D",
"+X c #9C9CA0",
"@X c #9FA1A0",
"#X c #A9A9A7",
"$X c #B3ABA4",
"%X c #B8B6A9",
"&X c #BAB9B5",
"*X c #A3B3A4",
"=X c #CE9C95",
"-X c #CFAE8F",
";X c #EBA98C",
":X c #C29FA1",
">X c #C8BCAA",
",X c #C2BDB6",
"<X c #C5ACBC",
"1X c #F1BFA0",
"2X c #B3C991",
"3X c #BBE180",
"4X c #B8CBAA",
"5X c #D0CE94",
"6X c #CBE88F",
"7X c #FFFD98",
"8X c #FFFF82",
"9X c #C8C5BA",
"0X c #D2D0AF",
"qX c #D9E7AB",
"wX c #CDA9C2",
"eX c #C8C9C3",
"rX c #D1CEC7",
"tX c #C8D4C6",
"yX c #D4D1CC",
"uX c #D6D4C8",
"iX c #DDDDDB",
"pX c #D8D8D5",
"aX c #E2DCD5",
"sX c #E4DEDE",
"dX c #DBE3D4",
"fX c #E5E3DC",
"gX c #E9E6DD",
"hX c #E8E5D9",
"jX c #E8F1D1",
"kX c #DCDFE0",
"lX c #DFE1E3",
"zX c #DFE3E8",
"xX c #E4E5E3",
"cX c #E9E7E2",
"vX c #E6E8E6",
"bX c #EBEAE4",
"nX c #EDECEA",
"mX c #E6E8E9",
"MX c #F0EFED",
"NX c #F5F4EB",
"BX c #EBEDF0",
"VX c #EEF3F4",
"CX c #F4F3F3",
"ZX c #FDFEFD",
"AX c #F7F9F7",
/* pixels */
"H.H.H.H.H.H.H.H.H.H.H.H.H.H.H.H.H.H.H.H.H.H.2.H.H.H.H.H.H.H.H.H.H.H.H.H.H.H.H.H.H.H.H.H.H.2.H.H.H.H.H.H.H.H.H.H.H.H.H.H.H.H.H.H.",
"H.H.H.H.H.H.H.H.H.H.H.H.H.H.H.w._ } } !.| <.>.H.H.H.H.H.H.H.H.H.H.H.H.H.H.H.H.H.H.H.H.H.H.2.H.H.2.H.H.H.H.H.H.H.H.H.H.H.H.H.H.H.",
"H.H.2.H.H.H.H.2.2.H.H.H.H.H.u.L ~ V R /.E V q.H.H.2.H.H.H.H.2.2.H.H.H.H.H.H.H.H.H.2.2.2.2.H.2.2.H.H.2.H.H.2.H.H.H.2.H.H.H.H.2.2.",
"2.H.H.H.H.H.H.H.2.2.2.H.2.H.:.V Y f T T Y y M *.F.H.H.H.H.H.H.2.2.2.H.2.H.H.H.H.H.H.H.H.H.H.H.H.H.H.H.H.H.H.H.2.H.H.H.H.H.H.H.2.",
"H.2.2.H.H.H.H.H.H.H.H.H.H.w.V j p p p = > Y I S ,.2.H.H.H.H.H.H.H.H.H.H.H.H.H.H.H.H.H.H.H.H.H.H.H.H.H.H.H.H.H.H.2.2.H.H.H.H.H.H.",
"H.2.2.2.H.H.H.H.H.H.H.H.H.L p j p i % # Y ~.~.V *.2.2.H.H.H.H.H.H.H.H.H.H.H.H.H.H.H.H.H.H.H.H.H.H.H.H.H.H.H.H.H.2.2.2.H.H.H.H.H.",
"H.2.H.H.H.H.H.H.H.H.H.H.H.K y y s p f 4.^.^.^.=.u.H.H.H.H.2.H.H.H.H.H.H.H.H.H.H.H.H.H.H.H.H.H.H.H.H.2.H.2.H.2.H.2.H.H.H.H.H.H.H.",
"2.2.H.H.H.H.H.H.H.H.H.H.H.K _ ~ ; V R 5.^.5.(.6.u.H.H.H.H.2.H.H.2.H.H.H.H.H.H.H.2.H.2.2.2.H.H.H.H.H.2.2.H.2.H.2.2.H.H.H.H.H.H.H.",
"H.H.H.H.H.H.H.H.H.2.H.H.H.p.5Xa.; T 3.3.3.4.4.R :.2.2.2.2.H.2.2.H.H.2.H.H.2.H.H.H.2.H.H.H.H.H.H.H.2.2.2.2.2.H.H.H.H.H.H.H.H.H.H.",
"H.2.H.H.2.H.H.2.H.H.H.H.w.5X7Xm.F u V C C C B u S H.H.H.H.H.H.H.H.H.H.H.H.H.H.H.H.H.H.H.H.H.H.H.H.H.H.H.H.H.H.H.2.H.H.2.H.H.H.H.",
"H.H.2.2.2.H.2.H.2.2.H.T.M.E.W.R.0.; : q f f 0 : S H.H.H.H.H.H.H.H.H.H.H.H.H.H.H.H.H.H.H.H.H.H.H.H.H.H.H.H.H.H.H.H.2.2.2.H.2.2.H.",
"2.H.2.2.2.2.2.H.2.2.U.jXQ.y.W.8XM.r o - > * * * J H.H.H.H.H.H.H.H.H.H.H.H.H.H.H.H.H.H.H.H.H.2.H.H.H.H.H.H.H.2.2.H.2.2.2.2.2.2.2.",
"H.2.2.2.H.H.H.H.2.J.6X7XR.R.m.g.r.=     X o * * J H.H.H.H.H.H.H.H.H.H.H.H.H.2.H.H.H.H.H.H.H.H.H.2.2.H.H.H.2.H.H.2.2.2.H.H.H.H.H.",
"H.H.H.H.H.H.H.2.>.J.I.I.h.e.f.H.G.  O     - 0 0 J H.H.H.H.H.H.H.H.H.H.H.H.H.2.H.H.2.H.H.H.H.H.H.H.H.H.H.2.2.H.H.H.H.H.H.H.H.H.H.",
"2.H.H.H.H.H.H.H.G.F.J.H.G.G.G.H.H.  X   X - q u C H.H.H.H.H.H.H.H.H.2.2.2.2.H.2.2.H.H.2.H.H.2.H.H.H.H.H.H.2.H.2.H.H.H.H.H.H.H.H.",
"H.2.2.2.H.H.H.H.2.H.H.2.H.H.H.H.2.        : q B C 2.2.H.2.H.H.H.H.H.H.H.H.H.H.H.H.H.H.H.H.H.H.H.H.H.H.H.H.H.2.H.2.2.2.H.H.H.H.H.",
"H.2.2.2.2.H.H.H.H.2.2.2.H.2.2.H.u.N O       O q L H.H.H.H.H.H.H.H.H.H.H.H.H.H.H.H.H.H.H.H.H.H.H.H.H.H.H.H.H.H.H.2.2.2.2.H.H.H.H.",
"H.2.2.H.H.H.H.2.H.2.2.2.2.2.2.2.u.f * O     : O M H.H.H.H.H.H.H.H.H.H.H.H.H.H.H.H.H.H.H.H.H.H.H.H.H.H.H.H.H.H.H.2.2.H.H.H.H.H.H.",
"H.2.2.2.H.H.2.H.2.2.2.H.H.H.H.H.P.*X`.`.#X`.#X| L H.H.H.H.H.H.H.H.H.H.H.H.H.H.H.H.H.H.2.H.2.H.2.H.H.H.H.2.2.H.H.2.2.2.H.H.2.2.H.",
"2.2.2.H.H.H.H.H.H.H.H.H.H.H.H.H.9.vXAXMXsXxXsXAXx.H.H.2.2.2.H.H.H.2.H.2.2.2.H.H.H.H.H.2.2.H.2.H.H.2.2.2.2.2.H.2.2.2.H.H.H.H.H.H.",
"H.2.H.H.H.H.H.2.H.H.H.H.H.H.H.H.D.~ `.| h v v aX2XH.H.H.H.H.H.H.H.H.2.H.H.H.H.H.H.H.2.2.2.2.2.H.H.H.H.H.H.2.H.H.2.H.H.H.H.H.H.H.",
"H.2.2.H.H.H.H.H.2.2.2.H.H.H.H.<.t o i =   + < g L H.H.H.H.H.H.H.H.H.H.H.H.H.H.H.H.H.H.H.H.H.H.H.H.H.H.H.H.H.H.H.2.2.H.H.H.H.H.H.",
"H.H.H.2.H.H.H.H.2.2.2.2.H.H.H.d.s 7 = 5 6 9 9 k A H.H.H.H.H.H.H.H.H.H.H.H.H.H.H.H.H.H.H.H.H.H.H.H.H.H.H.H.H.2.H.H.H.2.H.H.H.H.H.",
"2.2.2.H.H.H.H.H.2.2.H.H.H.H.D.p.W s s s a a d m L H.H.H.H.H.H.H.H.H.H.H.H.H.H.2.H.H.H.H.H.H.H.2.2.H.H.H.H.2.H.2.2.2.H.H.H.H.H.2.",
"H.H.H.H.H.H.H.H.2.2.2.H.H.>._ ] v s v g a a d k a.P.P.T.J.F.F.F.G.G.F.G.H.H.H.H.2.2.2.H.H.H.2.H.H.H.H.H.2.2.H.H.H.H.H.H.H.H.H.H.",
"H.H.H.H.H.H.H.2.2.2.H.H.H.;./ ! p s s a a a a 2 ) -X5XjXOX:.-.7.p.g.7.;.J.H.H.H.H.H.H.H.H.2.2.H.H.H.H.H.H.H.H.H.H.H.H.H.H.H.H.H.",
"H.2.H.H.H.H.H.H.2.H.H.H.H.[ ( Q p s i i a a a x G k.9XeX[.j.`.eXtXtXeX%Xx.2X}.2X0Xu.H.H.H.H.2.H.H.H.H.H.H.H.H.H.2.H.H.H.H.H.H.H.",
"H.H.2.2.2.H.H.H.2.2.H.G.w.] ~ h s s a i 7 7 a c b O.#X`.k.XXpXxXiXyXfXZXmXzXzXxXMXx.6XK.H.H.H.2.2.2.H.H.2.2.2.H.H.2.2.2.H.H.H.H.",
"H.H.H.H.H.H.H.H.H.H.2.G.P ( h i s s s i i 7 7 c b ) ].].@.j.#XXX[._.`.%X9XxXCXAXZXZXZXtXg.P.Y.F.H.H.H.H.H.H.H.H.H.H.H.H.H.H.H.H.",
"H.H.H.H.H.H.H.2.2.2.G.f.+.( s p h h h s a a 7 c b ) ].{.@.@.[.`.`.`.j.H D ] '.oX%X%XyXnXaX4XtXp.F.T.J.H.H.H.H.H.H.H.H.H.H.H.H.H.",
"2.2.H.H.H.H.2.H.H.H.q.O.| Q s v Q W U h a a c ! G ) '. Xj.j.#X#X$X%X_./ x l b G c r c / k.aXAX9X2XjXx.D.2.H.H.2.2.H.H.H.H.2.H.H.",
"2.2.2.H.H.2.2.H.H.H.-.n Q s v ! W v v g 7 a b / ^ ^ +.{._.).#X&XrXiXpXeX,X%X$Xj.6 c 6   4 z.-X].].9XtXx.K.8.*.>.2.2.H.H.2.2.2.H.",
"H.H.H.H.H.H.H.H.2.<.Z 7 s d W W g s s s g c ! / ^ D G k.{.XX&XeXlXnXVXZXZXZXZXzX[.,X#X| ^ m z 3 r / $X|.OXOX~ -.i.H.H.H.H.H.H.H.",
"H.H.H.H.H.H.H.H.H.M 6 6 7 g v g s s i g ! ( ( / b l l +..X&XeX9XpXiXiXfXmXxXxXBXZXZXAXVXyX+.X   + 3 l ) >XaX| > K ,.H.H.H.H.H.H.",
"H.H.H.H.H.H.H.H.H.Z 8 8 7 a a a s s i d ! ( / ^ b 9 l k.$X#X$X#XeXpXxXxXxXxXxXmXMXmXBXZXZXpX{ o       4 O.k.Q o q <.H.2.H.H.2.H.",
"H.H.2.H.H.H.H.H.H.Z = 5 8 r 7 7 i a a r d c d b b l n ].%X#X[.[.$XyXnXxXmXmXmXxXlXkXlXmXBXVXkX|       < z r o o w <.H.H.H.H.H.H.",
"2.H.H.H.H.H.H.2.2.Z = = 5 6 6 5 5 8 e 7 5 5 1 r x r 4 +.9XeXXXXX#XrXnXfXxXmXvXxXxXxXmXxXiXxXZXiX).).).! +     O V }.qXH.H.H.H.H.",
"H.2.2.H.H.H.H.2.2.M % = 1 5 5 = = = 8 6 6 5 6 9 9 2 < x '.9X#XXX%XrXiXiXfXxXxXxXxXvXvXxXxXxXxXCXZXZXZX&X{ h     { ZXZXH.H.H.H.H.",
"H.2.2.2.H.H.H.H.H.M % % , 5 5 $ $ $ = 8 6 1 1 2 2 2 2 + e | ,X%X&XeXpXpXxXxXxXxXvXmXmXvXxXxXvXCXZXZXZXZXZX+X  h #XfX4X2.H.2.H.2.",
"H.2.H.H.H.H.H.H.H.S 6 = 1 1 % @ @ $ % 1 1 , 1 1 2 2 2 &   ! bXpX&X9XpXfXxXxXfXxXvXmXmXmXxXxXmXnXCXCXAXZXAX).  #XgXx.f.2.2.H.2.H.",
"2.2.H.H.H.H.H.H.H.q.J = = = % @ X @ $ # & % 1 % , 2 1 + > ).ZXfX&X&XpXgXgXxXxXbXcXbXmXbXcXcXbXMXCXCXCXZXCX#XO ' Y.G.2.2.2.2.2.H.",
"H.H.H.H.H.H.H.H.H.H.;.% = = % @ X + @ + @ % % # % 1 ,   / aXAXuX,X9XpXgXgXgXcXbXxXbXbXbXgXgXbXMXnXbXbXAXZXpXK -.G.H.H.H.H.H.H.H.",
"H.2.H.H.2.H.H.H.H.H.;.t 1 1 % @ X X X X @ @ @ @ # , ,   @.hXrX9XuXaXfXfXxXgXgXgXgXgXgXgXfXhXbXbXfXfXbXAXAX2XH.H.H.H.H.H.H.H.H.H.",
"H.H.2.2.2.H.2.2.H.H.H.q.% 1 % @ X X . . X X + + @ & & 2 @.%X.X9XfXgXfXfXfXgXgXbXcXfXgXfXfXfXbXNXMXNXZXNXqXH.H.2.H.H.H.H.H.H.H.2.",
"2.H.2.2.2.2.2.2.2.H.H.u.w 6 % @ @ @ X . . X X + & + . !  X%X X9XuXfXbXfXfXfXbXnXbXgXgXhXgXbXNXAXZXbXNX6XP.H.H.H.2.2.2.H.H.H.2.H.",
"H.2.2.2.H.H.H.H.H.H.H.i.<.-.t % % @ X . . X + @ + + 2 /  X%X.X.X$X,XuXaXaXfXaXpXuXgXuXuXgXNXZXZXuXg.3XL.H.H.H.H.H.H.H.H.H.2.2.H.",
"H.H.H.H.H.H.H.H.H.H.H.H.H.H.:.M & @ + + + @ @ & + 8 G / +.{.oX X X X$X9XrXaXrX%X%X9XoX%XhXNX%X4XU.2.H.H.2.H.2.H.H.H.H.H.H.H.2.H.",
"2.H.H.H.H.H.H.H.H.H.H.H.H.2.2.,.w w 3 w = & , , 9 D +.] ' | _.{..X.X X X>XuX9X X|.|.oX>X0X0X6.>.H.H.2.2.H.H.H.H.H.H.H.H.H.H.H.2.",
"H.2.2.2.H.H.H.H.H.H.H.H.2.2.2.2.F.<.C *.K w r r D [ [ ` ( ' ' +.k.]. X XoXoX4X9XoXoX0X5Xc.L.H.H.H.H.H.H.H.H.H.H.H.H.H.H.H.H.H.H.",
"H.2.2.2.2.H.H.H.H.H.H.H.H.H.H.H.H.H.F.H.i.q.<.<.<.w.D.7./ / / ` [ +.l.l.` d @.dXk.7.f.D.J.H.H.H.H.H.H.H.H.H.2.2.H.H.H.H.H.H.H.H.",
"H.2.2.H.H.H.H.H.H.H.H.H.H.H.H.H.H.H.H.H.H.H.2.2.H.H.H.D.F r H d.d.d.g.7.;.z X.5Xg.F.2.2.2.H.H.H.H.H.H.H.H.H.H.H.H.H.H.H.H.2.2.H.",
"H.2.2.2.H.H.2.2.H.H.2.2.2.H.H.H.H.H.H.H.H.H.H.H.H.H.H.H.P k H H.H.H.H.H.H.X.o.S.H.H.H.H.H.H.H.H.H.H.H.H.H.H.H.H.H.H.2.2.2.2.2.H.",
"2.2.2.H.H.H.H.H.H.H.H.H.H.H.H.H.H.H.H.H.H.H.H.H.H.H.2.2... . .G.H.H.H.H.H.t.o.v.H.H.H.H.H.H.H.H.H.H.H.H.H.H.H.H.H.H.H.H.H.H.2.H.",
"H.2.H.H.H.H.H.H.H.H.H.H.H.H.H.H.H.H.H.H.H.H.H.H.H.H.H.H.s.&.$.L.H.H.H.H.H.t.o.O.H.H.H.H.H.H.H.H.H.H.H.H.H.H.H.2.H.H.H.H.H.H.H.H.",
"H.2.2.H.H.H.H.H.H.H.H.H.H.H.H.H.H.H.H.H.H.H.H.>.G.G.L.G.s.$.v.L.H.H.H.2.H.M.v...H.2.H.H.H.H.H.H.H.H.2.2.2.2.2.2.2.H.H.H.H.H.H.2.",
"H.H.H.2.H.H.H.H.H.2.H.H.H.H.H.H.H.H.H.H.F.g.x.x.p.0.m.h.b.n.b.L.H.H.H.H.H.E.A.b.2.H.2.2.2.H.H.H.H.H.H.H.2.2.2.2.H.2.H.H.H.H.2.H.",
"2.2.2.H.H.H.H.H.2.H.2.2.2.H.H.H.H.H.H.F.d.:X:X=XN.$.C.$.$.C.m.H.H.H.H.H.L.M.A.S.H.H.H.H.H.H.H.H.H.H.H.H.H.H.H.H.H.H.H.H.H.2.2.H.",
"H.H.H.H.H.H.H.H.H.H.H.H.H.H.H.H.H.H.H.D.p.0X=XB.;X;X=XN.V.h.2.H.H.H.H.H.h.v.C.n.H.H.H.H.H.H.H.H.H.H.H.H.H.H.H.H.H.H.H.H.H.H.H.H.",
"H.H.H.H.H.H.H.H.H.H.H.H.H.H.H.H.H.H.H.H.F.D.I.L.c.wX<X1Xm.H.G.G.G.>.H.L.$.%.%.v.H.H.H.H.H.H.H.H.H.H.H.H.H.H.H.H.2.H.H.H.H.H.H.H.",
"H.2.H.H.H.H.H.H.H.H.H.H.H.H.H.H.H.H.H.H.H.H.H.H.>.Y.Y.T.G.<.l.a.O.s.Z.Z.n.A.;XS.H.H.H.2.H.2.H.2.2.2.2.2.H.H.H.H.H.2.2.H.H.2.2.2.",
"H.H.2.2.2.H.H.H.H.H.H.2.H.2.H.2.2.H.H.H.H.H.H.H.H.2.2.H.K.] z.V.N.B.B.V.C.E.E.E.H.2.2.2.2.2.2.2.2.2.2.2.2.H.H.H.H.H.H.H.H.H.H.H.",
"H.H.H.H.H.H.H.H.H.2.2.2.2.2.2.2.2.H.H.H.H.H.H.H.H.H.H.H.c.;XA.C.;X=XN.$.Z.P.H.H.H.H.H.H.H.H.H.H.H.H.H.H.H.H.H.H.H.H.H.H.H.H.H.H.",
"H.H.H.H.H.H.H.H.H.H.H.H.H.H.H.H.H.H.H.H.H.H.H.H.H.H.H.H.u.a.A.N.#.#.=XqXL.H.2.H.H.H.H.H.H.H.H.H.H.H.H.H.H.H.2.H.H.H.H.H.H.2.H.H.",
"2.2.H.H.H.H.2.H.H.H.H.H.H.H.H.H.H.H.H.H.H.H.2.H.H.H.H.H.H.2.H.H.2.2.2.H.H.2.2.2.H.H.H.H.H.2.2.H.H.H.H.H.H.2.H.H.H.H.H.H.H.H.2.2."
};
