/* XPM */
static char *_2add686d30b4069cc4321c973fc6200LYyRbB4G8GXfFE1v[] = {
/* columns rows colors chars-per-pixel */
"64 64 233 2 ",
"   c #00000E",
".  c #19100B",
"X  c #3B210B",
"o  c #472B19",
"O  c #5F3B16",
"+  c #793A0A",
"@  c #983E04",
"#  c #B23F05",
"$  c #944308",
"%  c #88541C",
"&  c #9B5518",
"*  c #A64907",
"=  c #B94606",
"-  c #AE590F",
";  c #B75809",
":  c #AE5614",
">  c #B15210",
",  c #AF641E",
"<  c #BC6814",
"1  c #BE7C1F",
"2  c #9B6C27",
"3  c #C85809",
"4  c #D35E11",
"5  c #C4540C",
"6  c #C7670B",
"7  c #D0640F",
"8  c #CA720E",
"9  c #D67B0B",
"0  c #CB6C11",
"q  c #C66614",
"w  c #D86A17",
"e  c #CC7114",
"r  c #C3741B",
"t  c #C87B18",
"y  c #D77A18",
"u  c #EA7C1A",
"i  c #E77614",
"p  c #EA720F",
"a  c #CC7826",
"s  c #E87F23",
"d  c #5BBF35",
"f  c #70B02D",
"g  c #71BB39",
"h  c #59C135",
"j  c #61C23B",
"k  c #6AC443",
"l  c #76C545",
"z  c #B9821F",
"x  c #909A29",
"c  c #BB9628",
"v  c #A79331",
"b  c #85A52F",
"n  c #B6A733",
"m  c #AABD3A",
"M  c #B6B637",
"N  c #B9A92C",
"B  c #C9831C",
"V  c #DB8D1B",
"C  c #D5871A",
"Z  c #DC921C",
"A  c #DF9013",
"S  c #DE8609",
"D  c #F38314",
"F  c #E69913",
"G  c #E08B0C",
"H  c #EDA714",
"J  c #F2AC17",
"K  c #F4B418",
"L  c #CA8223",
"P  c #CD8B2B",
"I  c #CA8423",
"U  c #D18E28",
"Y  c #D68824",
"T  c #C69726",
"R  c #DB9221",
"E  c #DD9A24",
"W  c #D5942D",
"Q  c #DA972C",
"!  c #DB9B2B",
"~  c #D5952B",
"^  c #CE9234",
"/  c #CB923B",
"(  c #D29433",
")  c #D59A33",
"_  c #DB9D32",
"`  c #D49B3B",
"'  c #D89F3A",
"]  c #DB9038",
"[  c #C98C31",
"{  c #E68928",
"}  c #E49D2A",
"|  c #E79926",
" . c #F09932",
".. c #CFA22D",
"X. c #C0B02F",
"o. c #DBA439",
"O. c #CAB43B",
"+. c #C4B73E",
"@. c #CEB03D",
"#. c #E7A420",
"$. c #EBA42D",
"%. c #ECAA2C",
"&. c #EAA928",
"*. c #EBB62D",
"=. c #F7BA22",
"-. c #F3B92C",
";. c #EDAC35",
":. c #E3AC3B",
">. c #E5A635",
",. c #ECB43B",
"<. c #EDB73B",
"1. c #F2B333",
"2. c #F5BC32",
"3. c #F1B53D",
"4. c #F3BB3C",
"5. c #89C33D",
"6. c #A5CB3C",
"7. c #A7C63A",
"8. c #B3C53E",
"9. c #A1D23F",
"0. c #CEC131",
"q. c #F6C43D",
"w. c #F6C535",
"e. c #B7B746",
"r. c #CD9B44",
"t. c #D39F44",
"y. c #C9A64D",
"u. c #D5A044",
"i. c #DBA443",
"p. c #DBAC4B",
"a. c #DAA947",
"s. c #DAB447",
"d. c #DDAF55",
"f. c #D6AB56",
"g. c #CCB957",
"h. c #DCB858",
"j. c #E4AA43",
"k. c #EDB642",
"l. c #E8B949",
"z. c #F3BB45",
"x. c #F1BB46",
"c. c #E5BB59",
"v. c #F6A445",
"b. c #DAB864",
"n. c #8EC24F",
"m. c #9CDB43",
"M. c #9DD543",
"N. c #95C653",
"B. c #90C44E",
"V. c #AACE41",
"C. c #B5CD46",
"Z. c #A3D441",
"A. c #A3DB4B",
"S. c #AAD849",
"D. c #B9D54A",
"F. c #BBC856",
"G. c #A6DD52",
"H. c #ABDB53",
"J. c #ACDB59",
"K. c #B4DB5A",
"L. c #B6D556",
"P. c #9ED064",
"I. c #9ED47B",
"U. c #B4DF63",
"Y. c #BCDE64",
"T. c #BFE57C",
"R. c #C2D241",
"E. c #D6C45A",
"W. c #C7D956",
"Q. c #C4C541",
"!. c #EEC849",
"~. c #F5C344",
"^. c #F6CA44",
"/. c #F6C54A",
"(. c #F6CB4D",
"). c #EDC253",
"_. c #EBC15B",
"`. c #F3C552",
"'. c #F6CB53",
"]. c #F9CD55",
"[. c #F5CA5B",
"{. c #F9CF5A",
"}. c #F1C35B",
"|. c #F7D05A",
" X c #F9D35C",
".X c #F9D557",
"XX c #CBC966",
"oX c #D6CF60",
"OX c #C6DA63",
"+X c #CDDA74",
"@X c #DBDC7F",
"#X c #DDD96A",
"$X c #ECCA68",
"%X c #F2CE64",
"&X c #F2CC68",
"*X c #E6D765",
"=X c #F5D363",
"-X c #F9D564",
";X c #FAD965",
":X c #F5D56B",
">X c #F9D769",
",X c #F9DB6C",
"<X c #F5D969",
"1X c #E6DB76",
"2X c #F4D573",
"3X c #F7DB73",
"4X c #F9DC72",
"5X c #F9DB7B",
"6X c #F4D878",
"7X c #CDE171",
"8X c #DBE27C",
"9X c #FAE06C",
"0X c #E8E37C",
"qX c #F9E174",
"wX c #FAE47B",
"eX c #E9D981",
"rX c #F4DC84",
"tX c #F1DE9A",
"yX c #CCE789",
"uX c #CAE491",
"iX c #FBE484",
"pX c #FAE48C",
"aX c #F1E59B",
"sX c #D5E3A3",
"dX c #F9E7A9",
"fX c #FBEDAB",
"gX c #FCEDA6",
"hX c #FAEDBE",
"jX c #FBEEB2",
"kX c #F7F4BA",
"lX c #EAEEB7",
"zX c #F8EEC3",
"xX c #FBF3C6",
/* pixels */
"m.m.m.m.m.m.m.m.m.m.m.m.m.m.m.m.m.m.m.m.m.m.h m.m.m.m.m.m.m.m.m.m.m.m.m.m.m.m.m.m.m.m.m.m.h m.m.m.m.m.m.m.m.m.m.m.m.m.m.m.m.m.m.",
"m.m.m.m.m.m.m.m.m.m.m.m.m.m.m.m.m.m.m.m.m.m.h m.m.m.m.m.m.m.m.m.m.m.m.m.m.m.m.m.m.m.m.m.m.h m.m.h m.m.m.m.m.m.m.m.m.m.m.m.m.m.m.",
"m.m.h m.m.m.m.h h m.m.m.m.m.m.m.m.m.h h h h m.m.m.h m.m.m.m.h h m.m.m.m.m.m.m.m.m.h h h h m.h h m.m.h m.m.h m.m.m.h m.m.m.m.h h ",
"h m.m.m.m.m.m.m.h h h m.h m.m.m.m.m.m.m.m.m.m.h m.m.m.m.m.m.m.h h h m.h m.m.m.m.m.m.m.m.m.m.m.m.m.m.m.m.m.m.m.h m.m.m.m.m.m.m.h ",
"m.h h m.m.m.m.m.m.m.m.m.m.m.m.m.m.m.m.m.m.m.m.m.h h m.m.m.m.m.m.m.m.m.m.m.m.m.m.m.m.m.m.m.m.m.m.m.m.m.m.m.m.m.m.h h m.m.m.m.m.m.",
"m.h h h m.m.m.m.m.m.m.m.m.m.m.m.m.m.m.m.m.m.m.m.h h h m.m.m.m.m.m.m.m.m.m.m.m.m.m.m.m.m.m.m.m.m.m.m.m.m.m.m.m.m.h h h m.m.m.m.m.",
"m.h m.m.m.m.m.m.m.m.m.m.m.m.m.m.m.m.m.m.m.m.m.m.m.m.m.m.m.h m.m.m.m.m.m.m.m.m.m.m.m.m.m.m.m.m.m.m.m.h m.h m.h m.h m.m.m.m.m.m.m.",
"h h m.m.m.m.m.m.m.m.m.m.m.m.m.m.m.m.m.m.m.m.m.m.m.m.m.m.m.h m.m.h m.m.m.m.m.m.m.h m.h h h m.m.m.m.m.h h m.h m.h h m.m.m.m.m.m.m.",
"m.m.m.m.m.m.m.m.m.h m.m.m.m.h h m.m.m.m.m.m.m.m.m.h h h h m.h h m.m.h m.m.h m.m.m.h m.m.m.m.m.m.m.h h h h h m.m.m.m.m.m.m.m.m.m.",
"m.h m.m.h m.m.h m.m.m.m.m.m.m.h h h m.h m.m.m.m.m.m.m.m.m.m.m.m.m.m.m.m.m.m.m.m.m.m.m.m.m.m.m.m.m.m.m.m.m.m.m.m.h m.m.h m.m.m.m.",
"m.m.h h h m.h m.h h m.m.m.m.m.m.m.m.m.m.m.m.m.m.m.m.m.m.m.m.m.m.m.m.m.m.m.m.m.m.m.m.m.m.m.m.m.m.m.m.m.m.m.m.m.m.m.h h h m.h h m.",
"h m.h h h h h m.h h h m.m.m.m.m.m.m.m.m.m.m.m.m.m.m.m.m.m.m.m.m.m.m.m.m.m.m.m.m.m.m.m.m.m.m.h m.m.m.m.m.m.m.h h m.h h h h h h h ",
"m.h h h m.m.m.m.h m.m.m.m.m.m.m.m.m.m.m.m.m.m.m.m.m.m.m.m.m.m.m.m.m.m.m.m.m.h m.m.m.m.m.m.m.m.m.h h m.m.m.h m.m.h h h m.m.m.m.m.",
"m.m.m.m.m.m.m.h h m.m.m.m.m.m.m.m.m.m.m.m.m.m.m.m.m.m.m.m.m.m.m.m.m.m.m.m.m.h m.m.h m.m.m.m.m.m.m.m.m.m.h h m.m.m.m.m.m.m.m.m.m.",
"h m.m.m.m.m.m.m.m.m.m.m.m.m.m.m.m.m.h m.m.m.m.h h m.m.m.m.m.m.m.m.m.h h h h m.h h m.m.h m.m.h m.m.m.m.m.m.h m.h m.m.m.m.m.m.m.m.",
"m.h h h m.m.m.m.h m.m.h m.m.m.m.h m.m.m.m.m.m.m.h h h m.h m.m.m.m.m.m.m.m.m.m.m.m.m.m.m.m.m.m.m.m.m.m.m.m.m.h m.h h h m.m.m.m.m.",
"m.h h h h m.m.m.m.h h h m.h h m.m.h h m.m.m.m.m.m.m.m.m.m.m.m.m.m.m.m.m.m.m.m.m.m.m.m.m.m.m.m.m.m.m.m.m.m.m.m.m.h h h h m.m.m.m.",
"m.h h m.m.m.m.h m.h h h h h h h m.h h h m.m.m.m.m.m.m.m.m.m.m.m.m.m.m.m.m.m.m.m.m.m.m.m.m.m.m.m.m.m.m.m.m.m.m.m.h h m.m.m.m.m.m.",
"m.h h h m.m.h m.h h h m.m.m.m.m.m.h m.m.m.m.m.m.m.m.m.m.m.m.m.m.m.m.m.m.m.m.m.m.m.m.m.h m.h m.h m.m.m.m.h h m.m.h h h m.m.h h m.",
"h h h m.m.m.m.m.m.m.m.m.m.m.m.m.h h m.m.A.G.A.m.m.m.m.h h h m.m.m.h m.h h h m.m.m.m.m.h h m.h m.m.h h h h h m.h h h m.m.m.m.m.m.",
"m.h m.m.m.m.m.h m.m.m.m.m.m.m.m.m.m.L.+X@XeX1XY.m.m.m.m.m.m.m.m.m.m.h m.m.m.m.m.m.m.h h h h h m.m.m.m.m.m.h m.m.h m.m.m.m.m.m.m.",
"m.h h m.m.m.m.m.h h h m.m.m.m.m.m.N.$X&X}.%X5XiX+XH.m.m.m.m.m.m.m.m.m.m.m.m.m.m.m.m.m.m.m.m.m.m.m.m.m.m.m.m.m.m.h h m.m.m.m.m.m.",
"m.m.m.h m.m.m.m.h h h h m.m.m.m.F.i.:.} $.x.-XqXiX0XG.m.m.m.m.m.m.m.m.m.m.m.m.m.m.m.m.m.m.m.m.m.m.m.m.m.m.m.h m.m.m.h m.m.m.m.m.",
"h h h m.m.m.m.m.h h m.m.m.m.m.L.^ ! C 9 V | <.].9XwX7Xm.m.m.m.m.m.m.m.m.m.m.m.h m.m.m.m.m.m.m.h h m.m.m.m.h m.h h h m.m.m.m.m.h ",
"m.m.m.m.m.m.m.m.h h h m.m.h j g.B 8 6 e C R } /. X,X0XG.m.m.m.m.m.m.m.m.m.m.m.m.h h h m.m.m.h m.m.m.m.m.h h m.m.m.m.m.m.m.m.m.m.",
"m.m.m.m.m.m.m.h h h m.m.m.m.F.^ ; ; ; q t R >.z.(..X9XY.m.m.m.m.m.m.m.m.m.m.m.m.m.m.m.m.m.h h m.m.m.m.m.m.m.m.m.m.m.m.m.m.m.m.m.",
"m.h m.m.m.m.m.m.h m.m.m.m.m.e.< * * * + o % L ;.4.^..XOXm.h h h h h m.m.h m.h m.m.m.m.m.m.m.h m.m.m.m.m.m.m.m.m.h m.m.m.m.m.m.m.",
"m.m.h h h m.m.m.h h m.m.m.m.v $ @ * & .   o 1 %.1.w.^.W.h h h h m.m.h h m.m.m.m.m.m.m.m.m.m.m.h h h m.m.h h h m.m.h h h m.m.m.m.",
"m.m.m.m.m.m.m.m.m.m.h m.m.M.2 + $ - , O X % ! } %.2.w.W.m.m.m.m.m.m.m.m.m.m.m.m.m.m.m.m.m.m.m.m.m.m.m.m.m.m.m.m.m.m.m.m.m.m.m.m.",
"m.m.m.m.m.m.m.h h h m.m.m.m q : $ - r r L R Z | &.&.2.W.m.m.m.m.m.m.m.m.m.m.h h m.m.m.m.m.m.m.m.m.m.m.m.m.m.m.m.m.m.m.m.m.m.m.m.",
"h h m.m.m.m.h m.m.m.m.m.7.Y i w > < L Y C V Z Z A G #.5.h m.m.m.m.m.m.m.m.m.m.m.m.m.m.m.m.h h m.m.m.m.m.h m.m.h h m.m.m.m.h m.m.",
"h h h m.m.h h m.m.m.m.M y p i { a < r t C V C 8 6 9 H 0.V.m.m.m.m.m.m.m.m.m.m.m.m.m.h h h h h m.m.m.m.m.m.h h h h h m.m.h h h m.",
"m.m.m.m.m.m.m.m.h m.X.u p D  .v.j.P Y ~ Q R B 9 9 S H K *.R.S.D.W.D.H.A.m.m.m.m.m.m.m.m.m.m.h m.m.m.m.m.m.m.h m.m.m.m.m.m.m.m.m.",
"m.m.m.m.m.m.m.m.m.h Y i D  .s.8.Z.g B.s.:.! V Z F F H K =.w.!.(.].=X*X#XOXK.m.h m.m.m.m.m.m.m.m.m.m.m.m.m.m.h m.m.h m.m.m.m.m.m.",
"m.m.m.m.m.m.m.m.m.m.M ..O.C.Z.m.m.m.H.s.:.! E E #.H H K =.w.q.'. X-X>X,X5X6X+XP.k m.m.m.m.m.m.h m.m.h h h h m.h h m.m.h m.m.h m.",
"m.m.h m.m.m.m.m.m.m.m.m.m.m.m.m.h h l s.:.o.! E &.&.J J =.2.q./.~./.{.>X,X>X,X3X1XN.m.m.m.m.h m.m.m.m.m.m.m.m.m.m.m.m.m.m.m.m.m.",
"h m.m.m.m.m.m.h h m.m.m.m.h m.m.m.m.D.l.s.' ~ ! %.%.*.-.-.2.2.1.1.1.3./.'.]. X-X-X<XOXm.m.h h m.m.m.m.m.m.m.m.m.m.m.m.m.m.m.m.m.",
"m.h h m.m.m.m.h h h m.m.h h h m.m.m.S.h.p.` ( ~ >.,.,.4.~.q.1.%.$.$.;.3.4.~.'.{.-X-X>XOXm.m.m.m.m.m.m.m.m.m.m.m.m.m.m.m.m.m.m.m.",
"m.h h h m.m.m.m.m.m.m.m.m.m.m.m.m.h A.h.p.` ^ W _ ,.x.~.(.'.x.$.| ;.3.k.z./.'.]. X-X-X>XOXA.m.m.m.m.m.m.m.m.m.m.m.m.m.h m.h m.h ",
"m.h m.m.m.m.m.m.m.m.m.m.m.m.m.m.m.m.h F.a.` ( ( Q >.x.`.`.'.k.} $.k.x.z.z./.'.].|. X-X-X-XOXl h m.h m.h h h m.m.m.m.m.h h m.h m.",
"h h m.m.m.m.m.m.m.m.m.h h h m.m.m.m.m.L.s.' ( ( ) _ :.x.`.).:.} ,.).[.[././././.'.|.|.|. X>X*XS.m.m.h m.m.m.m.m.m.m.h h h h h m.",
"m.m.m.m.m.m.m.m.m.m.m.m.m.m.m.m.m.m.m.A.E.o.) ( ( ) o.:.l.j.~ Z ,.`.[.=X[.`././.(.].|. X X4XpX8Xm.m.m.m.m.m.m.m.m.m.m.m.m.m.m.m.",
"m.h m.m.h m.m.m.m.m.m.m.m.m.m.m.h h m.m.K.s.' ' ` ( ) _ o._ B C :.k.x.`.[.[././.(.'.|.;X X>XpXjXyXJ.m.m.m.m.m.m.m.m.m.m.m.m.m.m.",
"m.m.h h h m.h h m.m.m.m.m.m.m.m.h h h m.m.n.s.p.u.` ( ) ) ) U t ~ :.>.k.`.'./.(.'.|.-X>X,X,XiXfXxXlXsXuXJ.m.m.h m.m.m.m.m.m.m.h ",
"h m.h h h h h h h m.m.m.m.m.m.m.m.m.m.m.m.m.L.h.h.a.u.o.) ) W t t U ! ,.~.~.~.(.-X,X4X4XqXwXpXgXkXxXxXkXJ.m.m.m.h h h m.m.m.h m.",
"m.h h h m.m.m.m.m.m.m.m.m.m.m.m.m.m.m.m.m.m.m.K.g.h.h.d.a.` P B I _ :.<.~.^.(.'.|.>X3X4X,XqXiXgXjXhXzXT.m.m.m.m.m.m.m.m.m.h h m.",
"m.m.m.m.m.m.m.m.m.m.m.m.m.m.m.m.m.m.m.m.m.m.m.m.H.XXb.b.f.u.P I W l.).)./.(..X X X|.=X>X,X3XiXaXfXzXlXG.h m.h m.m.m.m.m.m.m.h m.",
"h m.m.m.m.m.m.m.m.m.m.m.m.h h h h h m.m.h m.h m.m.m.OXb.f.r.[ P a.c._.).`.'. X>X:X=X%X=X-XrXaXdXhXxXI.h m.m.m.m.m.m.m.m.m.m.m.h ",
"m.h h h m.m.m.m.m.m.m.m.h h h h m.m.h h m.m.m.m.m.m.m.H.XXr./ ^ p.c.c.).{.-X-X4X2X&X%X=X:XrXdXhXzXyXA.m.m.m.m.m.m.m.m.m.m.m.m.m.",
"m.h h h h m.m.m.m.m.m.m.m.m.m.m.m.m.m.m.m.m.m.m.m.m.m.m.A.F.y./ t.d.l.l.%X>X3X5X2X&X%X&X1XeXtXsXU.m.m.m.m.m.h h m.m.m.m.m.m.m.m.",
"m.h h m.m.m.m.m.m.m.m.m.m.m.m.m.m.m.m.m.m.m.h h m.m.m.m.m.m.J.y./ i.i.l.$X:X6XrX$XoXn.l k A.U.J.m.m.m.m.m.m.m.m.m.m.m.m.m.h h m.",
"m.h h h m.m.h h m.m.h h h m.m.m.m.m.m.m.m.m.m.m.m.m.m.m.m.h m.e.q @.F.E._.}.$XOXK.A.m.m.m.m.m.m.m.m.m.m.m.m.m.m.m.m.h h h h h m.",
"h h h m.m.m.m.m.m.m.m.m.m.m.m.m.m.m.m.m.m.m.m.m.m.m.h h h h m.t 3 8.m.m.O.| k.Z.m.m.m.m.m.m.m.m.m.m.m.m.m.m.m.m.m.m.m.m.m.m.h m.",
"m.h m.m.m.m.m.m.m.m.m.m.m.m.m.m.m.m.m.m.m.m.m.m.m.m.m.m.m.m.N 5 e 9.m.m.6.u o.m.m.m.m.m.m.m.m.m.m.m.m.m.m.m.m.h m.m.m.m.m.m.m.m.",
"m.h h m.m.m.m.m.m.m.m.m.m.m.m.m.m.m.m.m.m.m.m.h Z.6.6.6.9.6.r 5 y Z.m.h 7.u O.m.m.h m.m.m.m.m.m.m.m.h h h h h h h m.m.m.m.m.m.h ",
"m.m.m.h m.m.m.m.m.h m.m.m.m.m.m.m.m.m.m.m.m.d x < 0 0 0 6 ; # q n 7.m.m.T u Q.m.h m.h h h m.m.m.m.m.m.m.h h h h m.h m.m.m.m.h m.",
"h h h m.m.m.m.m.h m.h h h m.m.m.m.m.m.m.m.m.h f 0 3 3 5 = = 3 c m.m.m.V.w { D.m.m.m.m.m.m.m.m.m.m.m.m.m.m.m.m.m.m.m.m.m.m.h h m.",
"m.m.m.m.m.m.m.m.m.m.m.m.m.m.m.m.m.m.m.m.m.m.m.9.N B B t q r c M c M m c w | C.m.m.m.m.m.m.m.m.m.m.m.m.m.m.m.m.m.m.m.m.m.m.m.m.m.",
"m.m.m.m.m.m.m.m.m.m.m.m.m.m.m.m.m.m.m.m.m.m.m.m.m.m.m.7.c T T e = = 5 4 s O.Z.m.m.m.m.m.m.m.m.m.m.m.m.m.m.m.m.m.h m.m.m.m.m.m.m.",
"m.h m.m.m.m.m.m.m.m.m.m.m.m.m.m.m.m.m.m.m.m.m.m.h m.m.m.7.z 4 7 7 7 w { n Z.m.m.m.m.m.h m.h m.h h h h h m.m.m.m.m.h h m.m.h h h ",
"m.m.h h h m.m.m.m.m.m.h m.h m.h h m.m.m.m.m.m.m.m.h h m.m.b ( ] ] o.+.V.m.m.m.m.m.h h h h h h h h h h h h m.m.m.m.m.m.m.m.m.m.m.",
"m.m.m.m.m.m.m.m.m.h h h h h h h h m.m.m.m.m.m.m.m.m.m.m.m.m.m.m.m.m.m.m.m.m.m.m.m.m.m.m.m.m.m.m.m.m.m.m.m.m.m.m.m.m.m.m.m.m.m.m.",
"m.m.m.m.m.m.m.m.m.m.m.m.m.m.m.m.m.m.m.m.m.m.m.m.m.m.m.m.m.m.m.m.h h m.m.m.m.h m.m.m.m.m.m.m.m.m.m.m.m.m.m.m.h m.m.m.m.m.m.h m.m.",
"h h m.m.m.m.h m.m.m.m.m.m.m.m.m.m.m.m.m.m.m.h m.m.m.m.m.m.h m.m.h h h m.m.h h h m.m.m.m.m.h h m.m.m.m.m.m.h m.m.m.m.m.m.m.m.h h "
};
