/* XPM */
static char *_3b446c2aef44558d6a549d71123ab60RsGPGxSzNFHCE0D4[] = {
/* columns rows colors chars-per-pixel */
"64 64 253 2 ",
"   c #0E2B03",
".  c #0B2402",
"X  c #122C05",
"o  c #143305",
"O  c #153B06",
"+  c #193C0A",
"@  c #173808",
"#  c #14390E",
"$  c #2D3B13",
"%  c #2D3D37",
"&  c #112E22",
"*  c #4B3717",
"=  c #1C430A",
"-  c #1D4A0A",
";  c #184505",
":  c #1E4E0D",
">  c #224D0C",
",  c #224809",
"<  c #24530C",
"1  c #29580A",
"2  c #2A4A18",
"3  c #2B5914",
"4  c #335819",
"5  c #374C0F",
"6  c #2C620C",
"7  c #33670C",
"8  c #3B750A",
"9  c #2C6412",
"0  c #376914",
"q  c #3A7414",
"w  c #2D7511",
"e  c #1B4831",
"r  c #285626",
"t  c #365C24",
"y  c #295836",
"u  c #2E4A31",
"i  c #3A6728",
"p  c #386839",
"a  c #366E2D",
"s  c #475213",
"d  c #436A16",
"f  c #447C13",
"g  c #4B7E1A",
"h  c #477817",
"j  c #537C1B",
"k  c #4C7110",
"l  c #477927",
"z  c #467735",
"x  c #4F742A",
"c  c #5E572C",
"v  c #103E51",
"b  c #243E45",
"n  c #0C3E6A",
"m  c #194959",
"M  c #17484F",
"N  c #295947",
"B  c #255659",
"V  c #2C4B4F",
"C  c #376747",
"Z  c #34694D",
"A  c #164963",
"S  c #174968",
"D  c #1D526C",
"F  c #154A73",
"G  c #1C5576",
"H  c #0F4367",
"J  c #265769",
"K  c #235D7C",
"L  c #265A74",
"P  c #2A627A",
"I  c #336A6F",
"U  c #4A5652",
"Y  c #477650",
"T  c #4A7769",
"R  c #677172",
"E  c #4D8314",
"W  c #4A8319",
"Q  c #548C15",
"!  c #558B1A",
"~  c #5A8D1A",
"^  c #548518",
"/  c #5B931B",
"(  c #5B9517",
")  c #548A0C",
"_  c #649918",
"`  c #689709",
"'  c #67A61C",
"]  c #73A810",
"[  c #558828",
"{  c #558B2F",
"}  c #64952B",
"|  c #68962C",
" . c #669A2A",
".. c #629431",
"X. c #6AA723",
"o. c #6DAB2D",
"O. c #518D51",
"+. c #4D896E",
"@. c #6A9B60",
"#. c #84B707",
"$. c #F2DC16",
"%. c #EFD819",
"&. c #EAD429",
"*. c #E7D236",
"=. c #E7D138",
"-. c #F6E533",
";. c #DCCA4B",
":. c #D5C759",
">. c #E2CF44",
",. c #F8EA51",
"<. c #CDC469",
"1. c #C6C375",
"2. c #C5C379",
"3. c #D3C867",
"4. c #FAEE6F",
"5. c #1C5784",
"6. c #235E84",
"7. c #2C668A",
"8. c #2D698C",
"9. c #296584",
"0. c #316B8A",
"q. c #2C6B93",
"w. c #316E92",
"e. c #36799E",
"r. c #357498",
"t. c #347591",
"y. c #3A7EA4",
"u. c #367BA3",
"i. c #296DA2",
"p. c #497B8C",
"a. c #5A7E98",
"s. c #3E818A",
"d. c #3C83AB",
"f. c #3B82A6",
"g. c #3D89B6",
"h. c #4E8E8F",
"j. c #7D8485",
"k. c #689897",
"l. c #5DA38B",
"z. c #67AA8D",
"x. c #4588AA",
"c. c #428BB6",
"v. c #448EBA",
"b. c #4788B5",
"n. c #4591BC",
"m. c #4A94BC",
"M. c #4D97B9",
"N. c #5393B3",
"B. c #6496AF",
"V. c #6FB1B3",
"C. c #5CA0BC",
"Z. c #7DC3AB",
"A. c #4A96C2",
"S. c #539DC3",
"D. c #579DC9",
"F. c #448EC0",
"G. c #5AA5C9",
"H. c #76BAC8",
"J. c #65AED2",
"K. c #6AB4D5",
"L. c #6CB3D1",
"P. c #72BDE1",
"I. c #7AC5D3",
"U. c #7CCAE8",
"Y. c #78CDF9",
"T. c #7CD2FE",
"R. c #79D3FF",
"E. c #6CC7ED",
"W. c #3D8CCD",
"Q. c #898F90",
"!. c #93ADAB",
"~. c #91A699",
"^. c #BBC28C",
"/. c #BFC284",
"(. c #B6C294",
"). c #B2C29C",
"_. c #B9C393",
"`. c #AEC09E",
"'. c #93C6B7",
"]. c #AEC2A4",
"[. c #AAC2AB",
"{. c #A6C2AE",
"}. c #B3C5A5",
"|. c #A5C3B4",
" X c #A2C4BB",
".X c #ACC8BA",
"XX c #B4C9B2",
"oX c #C2C382",
"OX c #C2C894",
"+X c #FBF28E",
"@X c #F9EAB6",
"#X c #CFD2B5",
"$X c #9DC4C3",
"%X c #9AC6CA",
"&X c #95C4CC",
"*X c #8BC7DB",
"=X c #95C7D3",
"-X c #92C9DB",
";X c #97C9D8",
":X c #89D3D1",
">X c #A5C9C6",
",X c #B6D5D9",
"<X c #ABCFD3",
"1X c #8CCAE4",
"2X c #85CBEC",
"3X c #8BCDEB",
"4X c #86C9E4",
"5X c #93CCE3",
"6X c #8CD1EB",
"7X c #96D2E8",
"8X c #84CEF4",
"9X c #87CEF4",
"0X c #86D1F4",
"qX c #8AD3F5",
"wX c #84D3FC",
"eX c #8AD6FD",
"rX c #84D9FE",
"tX c #8CD9FE",
"yX c #8FD8F5",
"uX c #93DBFC",
"iX c #9ADBF7",
"pX c #AAD7E7",
"aX c #B7DAE7",
"sX c #A3DEF9",
"dX c #ABDFFD",
"fX c #A8DCF5",
"gX c #B2DCF2",
"hX c #94E2FF",
"jX c #99E5FF",
"kX c #8BE1FF",
"lX c #B9E4F8",
"zX c #B4E1F3",
"xX c #DBDCC6",
"cX c #C9D8D1",
"vX c #DBE3D9",
"bX c #D7E1D3",
"nX c #FEEBCB",
"mX c #FCEDD6",
"MX c #FEF5DB",
"NX c #E9E5D1",
"BX c #C6DEE4",
"VX c #D6E6E6",
"CX c #C7EBF9",
"ZX c #D3EEF7",
"AX c #DAF1F9",
"SX c #C7E4EC",
"DX c #FCF6E7",
"FX c #E8F6FA",
"GX c #FFFFFF",
"HX c #FDFEFD",
"JX c #FEFEFE",
"KX c #F4FBFA",
"LX c #EBEDE6",
/* pixels */
"uXeXeXeXeXeXrXwXwXeXeX6X7X7X5X;X;X>X>X.XXX}.OXoX2.3.:.>.&.,.MXGXGXGXDX4.&.=.;.3.3.oXOX).}.XX.X>X<X;X;X5X7X7XyXeXeXtXeXeXeXeXeXuX",
"wXT.T.T.R.T.tXiXtXR.R.9X3X1X-X=X&X$X X|.].(./.2.<.:.>.&.-.@XGXGXGXGXGXDX-.%.=.;.3.1./._.).{.|.>X%X=X-X1X1X2X8XT.T.T.T.T.T.T.T.wX",
"eXT.T.R.T.lXKXHXHXCX0X2X3X1X-X=X%X$X X{.].(./.2.<.;.=.$.,.GXGXGXGXGXGXGX+X$.&.;.:.1.oX^.).[.|. X%X=X-X1X1X2X8XT.T.T.R.R.R.T.T.eX",
"eXT.R.Y.iXHXGXGXKXKXzX2X4X4X-X=X%X$X X{.].(./.1.<.;.*.$.4.GXGXGXGXGXGXGX@X$.&.;.:.1.2.^.).[.|. X%X=X-X1X1X3X8XT.T.R.R.T.wXR.R.tX",
"tXR.T.R.sXGXGXHXAXCXZXBXaX-X*X=X&X$X X{.].(./.1.<.;.*.$.4.GXGXGXGXGXGXGX+X$.&.;.:.1.oX^.).[.|. X%X=X-X1X1X3X0XT.R.T.dXZXZXzXwXwX",
"wXsXZXCXlXFXGXGXGXGXGXDXDXBX<X,X<X>X X{.].(./.2.<.:.=.&.-.MXGXGXGXGXGXHX,.%.*.;.3.1./._.).[.|.$X%X=X-X1X1X3X8XR.Y.iXHXGXKXKXfXwX",
"tXFXGXGXGXKXGXGXGXHXKXLXDXDXNXmXnXxX X|.].).^.2.<.:.;.*.$.,.MXGXGXGXDX4.$.&.>.:.<.1./._.].{.|.$X%X=X-X1X1XU.Y.iXzXCXHXKXZXCXZXZX",
"FXGXGXGXGXGXGXGXGXHXKXVXVXLXMXmXmXxX X|.[.).(./.1.<.;.>.&.$.-.+X@X+X,.$.&.=.;.:.<.2./.).].|. X$X&X*X*X4X2X7XfXFXGXHXHXHXKXFXKXGX",
"GXKXFXAXAXFXGXGXGXGXGXLXpXaXMXMXmXNX#X|.{.].(.^.2.<.:.;.>.*.%.$.%.$.%.&.=.;.:.<.1.oX_.).[.|. X%X&X<X,XpXpXLXKXGXGXGXGXGXGXGXGXGX",
"AXZXlXdXzXZXFXFXFXFXZXlXaXVXDXMXmXmXNX X|.].)._./.1.<.:.;.;.=.*.&.&.=.>.;.:.<.1.2.^.).].{. X$X%XbXmXmXVXVXDXHXGXGXGXGXGXGXGXGXGX",
"FXCXdXdXlXlXlXlXlXlXdXgXaXVXVXLXmXnXcX$X|.{.].).^./.1.<.<.:.;.;.;.;.;.:.3.<.1.2./.(.).[.|. X%X%XbXMXLXaXaXSXZXAXFXFXAXKXcXLXKXZX",
"CXZXdXdXdXdXdXdXdXdXlXgXaXBXVXvX,X<X&X$X X|.[.].).^./.2.1.<.<.3.:.:.3.<.1.1.oX/.(.).].|. X$X%X=X;XvXMXBXgXgXdXdXCXAXFXGX@.Q.lXdX",
"iXZXCXlXlXlXlXdXdXCXFXLXVXLXaX7X*X*X=X%X$X X|.[.].).^./.oX2.1.1.1.1.1.2.2./.^.(.).].{. X$X$X%X*X,XDXDXBXpXgXlXFXHXGXGXLXl t pXCX",
"wXrXiXsXtXuXZXFXAXKXfXzXSXpX2X2X1X-X=X&X%X>X X|.[.].).(.^././.oXoXoX/././._.).].].{.|. X$X%X=X*X-XaXBXSXSXZXKXKXCXFXHX~.; O cXGX",
"dXsXuXT.E.E.tXlXlXuXR.Y.Y.Y.9X3X3X1X-X=X=X%X$X X|.[.].].).(._._.^.^._.(.(.).].[.|. X>X%X%X=X-X1X1X2XU.7XLXKXKXlXY.tXlXO.6 = cXKX",
"CXlXsXiXl.l.tXY.Y.R.T.T.T.8X8X2X2X1X1X-X=X=X%X$X X|.|.[.].].].).).).`.].].{.{.|. X$X%X&X=X-X-X1X3X2X9X8X9XyXqXR.R.T.E.Z < o k.uX",
"lXlXlXaXa Y lXdXfXfXtXwX0X9XqX3X3X2X1X1X-X=X=X%X$X$X X|.|.{.{.[.[.[.}.#XXXXX.X.X X>X>X=X*X1X1X3X2X8X9X8XT.Y.R.T.T.rXT.Z     I eX",
"lXlXlX!.  u <XCXlXlXgXfXgXgXgXgXpXpX7X1X4X*X-X=X%X%X$X$X X X|.|.!.XX@X@XxX@X@XNXxXnXNXcX<X4X3X3X8X9X8X8XwXwXT.T.T.T.rXI o o u 0X",
"iXiXiXT . # !.CXlXlXlXlXlXSXlXaXaXSXaX5X1X1X*X-X=X&X%X%X$X$X X X X#X@XnXnXnXnXnXmXMXMXMXVX4X2X3X2X8X8X8XwXwXwXT.T.wXkXT   o X H.",
"wXT.U.r   X k.'.'.pXlXlXlXlXlXaXaXaXaXaXaX,X<X-X-X;X=X&X%X%X%X&XcXxXcXxXxXNXNXNXvXNXMXDXVX5X9X*Xk.2X0X0XwXwXwXwXwXtXU.y     # H.",
"tXwXl.3 ; @ Y { q z z.hXiXiXfXfXfXgXgXaXaXaXpX5X5X5X-X;X;X;X=X<XxXxXxXcXcX,X,X,X,XaXBXVXLXBXuXV.t H.wX0X0XwXwXwXwXtXV.= ; o # 4X",
":XO.f , = o + 7 6 ; r H.U.wXeX0X0XqXqX6X3X3X3X3X1X5X5X-X-X-X*X<XbXbXvXbXcXBXBXaXaXBXVXLXDXVXuX+.O V.eX0XwXwXwXwXwXtXl.: ; o # *X",
"@.8 1 o O o o 7 q 7 o 3 O.U.U.eXwX0X0X0X8X0X9X3X3X3X1X5X5X5X5X5X;X;X<XBXBXvXvXDXLXVXaXSXzXyXeXY O V.eXwXwXwXwXwXwXrXU.p ;   # O.",
"g = + = @ @ @ 1 9 7 , , 1 r r l.eXeX0XqXqXqX9X3X3X3X3X3X3X1X5X5X1X1X5X7XpX7X7XaXaX7X9XqX0XwXeXC . +.tXtXrXwXwXrXtXkXl.3 O o - 4 ",
"4 + o o = = @ @ @ O + = o   . t 4XuXqXqXqXqXqX9XqX6X6X6X6X6X6X6X1X7X7X3X3X3X3X2X2X0X0X0X0XtXqXC   T I.l.U.rXrXI.z.@.9 1 q 9 < 2 ",
"l o O - - o o o X   @ > = X   2 V.uXtXeX0XeXyXyXyXqXiXiXyXqXqXqXyXyXqXqXqX0X0X0XrXrXrXrXwXkXH.9 O y { 6 +.rXz.W 8 8 < + < 9 + 2 ",
"0 @ - o o o o O o o X   X o X . y 4XhXeXuXiXsXsXiXiXsXsXiXeXtXtXtXrXwXrXrXrXwXwXrXrXrXrXrXkXI.y ; > f l H.z.8 7 1 , , 3 = X   2 ",
"t @ + ; - - @ > 1 6 9 + o o .   +.jXtXuXsXsXsXsXsXsXsXsXsXiXsXsXsXiXtXeXeXeXeXtXeXeXeXeXwXhXI.t ; + 1 4 C q < o   @ + @ o o + 2 ",
"$ X 9 w w < + + < ; < < > -     +.yXuXtXiXiXiXiXsXiXiXiXiXuXtXtXiXsXiXtXtXtXtXtXeXeXeXeXeXjXl.= o @ @ o , 9 O + o < = = 9 < < 4 ",
"$ o 9 w 1 = - o . @ 2 > O o X o O +.4XhXtXtXtXtXtXeXtXtXeXeXeXiXsXsXiXuXtXuXtXtXtXtXtXtXtXjXk.# o o - q q 9     = 7 0 9 9 < = 2 ",
"x = 3 < - - - @ > W X.g , . .       T :X:X'.'.V.6XtXtXtXtXtXtXiXuXuXuXtXtXuXtXtXtXtXtXtXtXyXz.W h h g f 1 1 4 + > W X.0 @ @ o 2 ",
"{  . .< = - O , W ( Q Q g 2 < < 3 o = O.o.' _ Q @.yXuXhXhXtXtXtXeXtXeXtXtXuXuXtXtXtXtXtXuXZ.X.' X.' _ ~ h W X.h ! ( ' ! 0 @ . $ ",
"x o.o.~ ! g , o 7 7 7 7 W / / / / 0 4 f Q E f f 8 z.uX*X4XjXuXjXhXhXjXhXuXuXyXjXhXjXhXjXjX@.) Q W E f h } X.( ( ( E E Q Q > + t ",
"[ Q h / ' ~ > . + = O + 0 f f h 0 0 0 3 1 1 1 < ; p +.a C V.Z.V.I.yX:XyXV.O.Y V.H.H.z.k.l.i 6 7 6 7 1 < W E f f 0 0 q q 7 0 !  .",
"l 0 < 3 E 0 X . o > > - < < : , - ; - ; ; ; ; ; O 3 f 1 1 ( ' h i Y a O.O.7 1 l o.z 0 f f < ; ; + = ; O - 3 7 1 < - - < - 1 E ! ",
"l 1 > 9 0 0 =   < k j k c s 5 s s 5 5 s s s 5 $ $ $ 5 $ 2 5 5 5 $ $ $ 5 s s d k ) k f ) Q f > , = O O O ; < - ; O o @ O ; < d @.",
"0 + = 1 1 1 q - $ c c c % u u % % % % % b V b b M m D J L L K 9.P P K L J J V V u u u u 2 $ * c s s s 5 s 5 1 7 1 7 0 q 7 x Q.!.",
"0 1 1 + + > < o X R Q.j.R J F G 9.7.8.q.r.r.e.u.d.g.n.S.S.S.F.v.v.n.v.v.v.c.g.d.u.q.8.7.9.P L J J m M V V u u s c c k d O.Q.Q.Q.",
"4 < 6 o   o o o O u U R j.Q.p.g.v.n.n.m.m.n.n.n.n.n.S.J.L.J.S.n.v.v.v.v.v.m.n.n.n.F.J.P.G.n.d.w.w.8.6.G D S A A m m b U Q.Q.j.Q.",
"2 o @ o = 1 1 7 f f 0 u U R Q.h.g.d.s.x.n.v.v.c.v.v.v.c.c.c.v.v.v.v.c.v.m.n.v.v.v.m.D.G.m.v.e.7.8.8.8.8.9.K L D S H T !.Q.j.j.R ",
"j h E E E h W ! / g q q z j.Q.Q.~.Y a h.F.n.c.S.G.m.n.n.v.v.v.v.v.v.v.n.n.c.v.v.v.v.c.g.v.c.d.y.u.r.q.8.w.w.9.D m J !.~.j.@.U V ",
"| / / ! f h g g h > = < @.!.a.Q.~.Y 1 s.F.n.v.G.J.S.n.v.v.v.v.v.v.v.n.n.v.v.v.v.v.v.v.c.c.v.n.n.n.v.d.7.8.w.L S A J I J V V M B ",
"| / ! 0 > 3 3 1 q , 1 7 @.a.R U V e e L y.v.v.g.c.v.v.v.v.v.v.v.v.v.m.S.G.S.v.v.v.v.A.G.J.K.J.G.S.m.x.e.w.7.7.9.K G H v v v m L ",
"} E h , , 0 < 3 i 2 r y v M B m m G q.y.c.v.m.F.m.n.v.v.v.v.v.v.v.v.v.m.m.n.n.n.v.m.D.J.K.P.K.G.D.D.G.L.C.y.r.w.w.9.G G 9.0.L L ",
"d 5 2 $ r y N M m A A S K 9.7.r.d.n.A.A.v.m.J.J.G.M.n.v.v.v.v.n.v.v.v.v.v.v.c.v.m.m.v.c.c.c.c.c.v.m.S.G.G.A.n.f.8.9.L L t.x.0.L ",
"V b M A A A r.n.b.y.p.x.C.G.r.w.f.f.y.c.v.m.S.G.S.n.v.v.v.v.m.n.v.v.v.m.G.m.c.v.c.c.c.v.v.v.v.v.v.c.g.c.n.c.y.e.w.0.J A G 9.K L ",
"L S G D S A L y.J.*XH.N.e.r.7.9.7.w.w.y.c.c.v.v.v.v.v.v.n.m.m.v.v.v.v.n.S.J.K.K.J.S.n.n.n.n.m.n.n.S.P.U.J.e.J 9.0.B M M m A m Z ",
"x.r.K A A A D K r.x.x.8.7.w.u.f.d.g.c.v.v.v.v.v.v.v.v.v.n.n.v.v.v.v.v.v.n.D.G.G.G.S.n.v.c.c.b.d.y.y.N.N.f.J y B J r r e r r 0 l ",
"C.e.D A L 9.7.7.9.7.7.7.w.u.y.f.y.y.x.v.v.v.v.v.v.v.v.v.v.v.v.v.v.v.v.c.y.e.r.r.r.w.w.w.w.w.w.8.8.7.7.P y r 0 i t q 7 > = 1 E } ",
"0.G A m D 9.8.8.r.w.7.7.8.8.8.7.7.r.x.c.n.v.v.v.v.v.v.v.v.n.v.v.v.n.n.n.c.d.d.y.y.u.r.q.w.8.7.7.7.7.7.K r 1 f Q E 0 q < o 3 g x ",
"L A D J L P y.C.a.k.r.7.8.7.7.7.7.w.r.e.e.e.e.e.e.e.e.e.u.y.y.d.d.d.c.c.c.c.c.c.c.c.x.e.8.7.8.8.8.7.m M e f Q Q f 1 6 1 1 g ^ [ ",
"L D 7.q.q.8.b.L.k.B.y.7.7.q.q.8.8.8.7.7.7.7.7.7.8.7.7.7.7.7.7.7.7.w.8.8.8.8.8.q.w.8.8.7.7.7.7.7.8.8.K m b 0 Q ( ! E E ! / / ~ } ",
"L A J P 0.9.P +.O.@...Y O.O.T P q.7.8.7.9.9.7.8.w.e.y.d.d.d.d.d.d.f.f.x.m.M.M.m.S.M.c.w.w.w.8.8.8.8.w.9.S v t k h f ^ / / g d [ ",
"J t ^ ~ / [ / ` ` ` ] ] ] ] _ z C Y I P p a Y P u.n.n.v.n.n.n.v.v.G.K.P.2XU.P.V.V.L.D.b.J.P.P.K.C.w.q.6.G A v % * 5 h ( E h 0 } ",
"{ t i ^ ` ` ( p N p z z C B N h ` ` C B a l [ I q.g.F.v.v.v.v.c.c.G.U.U.L.M.f.+.Y t.p.p.M.J.P.K.N.7.K G F v M e d ^ / g _ q > t ",
"} C n N j j l N p / _ X. .p p j ` _ [ { ~ ~ Z I P 0.f.c.n.m.n.F.x.+.O.h.h.O.@.h.W.x.O...O.f.d.r.K G F S M y d Q ( ( ~ g ' q > t ",
"Z B B [ ^ ^ _ z l ` #.#.#.` } [ j _ ] ] ' [ { ..} ^ z I u.f.d.c.x.+.+.s.p.+.+.t.g.f.t.I I 9.6.G F S B t h Q ( / ~ ( ( h _ 0 > t ",
"Y B B l [ l l p l ~ ~ ~ [ l z C p j ~ ^ l l ] #.^ p C J 5.5.5.9.8.q.i.i.9.6.5.D L K 5.5.5.G F m N i g ( _ / / / ! ! E 1 h W 3 i ",
"X.X.M n H H n H H m m m B N N p j [ ! z C z [ l B B Y O.{ { Y L G G G G m e e r y D G G D B p l Q ( ( ! g g ^ ! ^ W 1 1 q h < r ",
"i ' 0 # y M A F F F F F N g h j C J J P G K K K P z ! ~ ( ( { L 5.9.L D M e 9 q i S m N i g ( ( / ( ! h f 3 9 h ( W > 3 q < o t ",
"t 0 ( E h ^ l p N B A H S m m D F F G G K 6.6.6.9.P P L L L K G 5.5.G M & # q 0 9 i [ ! ( Q g d d E ! ' W - 9 f q 9 < > = o   l ",
"i > 0 ' / h ^ E h d l i y N M m m A S H H S F F F F F S m m M N N p r 3 , ; 1 1 8 E ! ! ~ ~ ^ g g E ( W 7 > 1 0 3 = < 3 @ = 0 { ",
"2 > , f X.^ g ^ ( _ ! ~ ~ ! ^ W g l l i i i p i i i i h g E ^ ~ ~ Q Q E E 8 0 0 h g E ! ~ ~ ~ ~ ! / f > < < < 1 < 3 0 q 0 q W l ",
"t 2 2 i t t l [ i [  .} | | | |  .} } } } ....}  . .| | | | | | | | | | } } } } } } } } } | | | | }  .t i i t t t l i t l { l z "
};
