/* XPM */
static char *_0f48acaebd54c0fe160477aac085c6eQwuL9p6ceiMU8T3T[] = {
/* columns rows colors chars-per-pixel */
"64 64 2 1 ",
"  c #59C135",
". c #9CDB43",
/* pixels */
"...................... ...................... ..................",
"...................... ...................... .. ...............",
".. ....  .........    ... ....  .........    .  .. .. ... ....  ",
" .......   . .......... .......   . ................... ....... ",
"........................  ..............................  ......",
"........................   .............................   .....",
"............................. .................... . . . .......",
"............................. .. ....... .   .....  . .  .......",
"......... ....  .........    .  .. .. ... .......     ..........",
". ..... .......   . .................................... .. ....",
"........  ...............................................   .  .",
"  ......   ................................... .......  .       ",
"........ ............................. .........  ... ..   .....",
".......  ............................. .. ..........  ..........",
" ................. ....  .........    .  .. .. ...... . ........",
".   .... .. .... .......   . ......................... .   .....",
".... ....   .  ..  .......................................  ....",
"....... .       .   ............................................",
"...... .   ...... ......................... . . ....  .......  .",
" ...............  .........   ... .   .....  . ..     . ........",
". ..... .......................... .......     ...... ..........",
".  .....   ...... .. ...................................  ......",
"... ..............   .  .............................. ... .....",
"   .....  ...... .       .............. .......  .... .   ..... ",
"........   ..  ..   ....................   ... .....  ..........",
".......   ...................................  .................",
". ...... ....................     .. . ....... ......... .......",
"..   ...  ..................    ..  ...........   ..   ..   ....",
".......... .....................................................",
".......   ..... ......................  ........................",
" ..... ...............  ..   ................  ..... ..  .... ..",
".....  ...................................     ......     ..   .",
". ...... ..................................... ....... .........",
".........   .....  .................... .............. .. ......",
"................... ..... ........       ...... ..    .  .. .. .",
". ..............   ..... .   .......    . .... .................",
".......  .... ...............................  .................",
".......   ..   .................................................",
"................. ...................... .................. ... ",
"..................   ...... . .     .....  ..   . .   ..... .. .",
" ..........   ...........            ............. .......  .. .",
"................................................................",
"................  .... ............... ...... ..................",
".. ...  ........   ..   .....  ...... ........  ....... ....... ",
" . ...   .............. ....... .   ....................   ... .",
".  .....................   ... ..............................  .",
".............................  . ............     .. . ....... .",
" ............     .. . ....... ..   ........    ..  ........... ",
".   ........    ..  ........... .    ...........................",
".... .................................................  ........",
"......................  ........... ..  ..   ...................",
"......  ..   ................ ............................   ...",
"..........................    ..................................",
"....................................................... ........",
"....................... ........... ..... ........       ...... ",
"... ..... ............   ............... .   .......    . .... .",
"........ .   .........  . ...................................  .",
".............................  .................................",
"................................. ...................... .......",
". ...................... .........   ...... . .     .....  ..   ",
"..   ...... . .  ........  ..   .........            ...........",
".........        ...............................................",
"................................  .... ............... ...... ..",
"  .... ............... ...... ..   ..   .....  ...... ........  "
};
