/* XPM */
static char *eaefe08a8eca4eeade83796bd0880b768xTJfQJYIi0cBr4u[] = {
/* columns rows colors chars-per-pixel */
"64 64 242 2 ",
"   c #1C1B1A",
".  c #191814",
"X  c #12190E",
"o  c #2B190D",
"O  c #331A0C",
"+  c #2B1D11",
"@  c #241D1C",
"#  c #291F1D",
"$  c #15291E",
"%  c #26251A",
"&  c #342412",
"*  c #3B2514",
"=  c #3C2A15",
"-  c #322811",
";  c #2B3A1A",
":  c #383416",
">  c #1C2D23",
",  c #172622",
"<  c #1B332A",
"1  c #1B3B2D",
"2  c #1A3925",
"3  c #1E3E31",
"4  c #282622",
"5  c #352E2A",
"6  c #322A27",
"7  c #213C26",
"8  c #233728",
"9  c #37332B",
"0  c #3D3530",
"q  c #432A16",
"w  c #452D18",
"e  c #4A2F18",
"r  c #4D311B",
"t  c #413018",
"y  c #55371E",
"u  c #403630",
"i  c #27471B",
"p  c #32451C",
"a  c #334D1C",
"s  c #27591D",
"d  c #39551F",
"f  c #36521E",
"g  c #19472B",
"h  c #16562A",
"j  c #1E4332",
"k  c #1C4A32",
"l  c #174230",
"z  c #1C5434",
"x  c #1B5D34",
"c  c #195835",
"v  c #0E4A22",
"b  c #264529",
"n  c #334D27",
"m  c #255729",
"M  c #3D5B21",
"N  c #385829",
"B  c #214433",
"V  c #214B36",
"C  c #244D3A",
"Z  c #284A36",
"A  c #24543C",
"S  c #235B3D",
"D  c #2C5838",
"F  c #335832",
"G  c #186829",
"H  c #1E653D",
"J  c #1D6C3C",
"K  c #166736",
"L  c #1B7434",
"P  c #1C743D",
"I  c #157B3C",
"U  c #1A7B3D",
"Y  c #187838",
"T  c #117329",
"R  c #2B6229",
"E  c #256827",
"W  c #346A2B",
"Q  c #356529",
"!  c #29762C",
"~  c #347523",
"^  c #377A24",
"/  c #397E25",
"(  c #37772B",
")  c #21623D",
"_  c #226B3A",
"`  c #3A6632",
"'  c #267737",
"]  c #377733",
"[  c #1F4919",
"{  c #425E25",
"}  c #436322",
"|  c #4C6C25",
" . c #48692C",
".. c #4C742E",
"X. c #4A7729",
"o. c #567C2A",
"O. c #557729",
"+. c #4B7532",
"@. c #557C32",
"#. c #486F31",
"$. c #536723",
"%. c #255740",
"&. c #1C7540",
"*. c #1B7B40",
"=. c #177840",
"-. c #207441",
";. c #15882B",
":. c #0D9D2D",
">. c #0A982D",
",. c #13952D",
"<. c #139D2E",
"1. c #1A8235",
"2. c #168C35",
"3. c #188A36",
"4. c #15843A",
"5. c #19833A",
"6. c #178939",
"7. c #1A8A39",
"8. c #168430",
"9. c #0F9632",
"0. c #159433",
"q. c #159A32",
"w. c #1B9B32",
"e. c #189138",
"r. c #0D8531",
"t. c #29862C",
"y. c #39842C",
"u. c #28962D",
"i. c #24843D",
"p. c #27893B",
"a. c #3B8935",
"s. c #239B34",
"d. c #299638",
"f. c #369B37",
"g. c #39972E",
"h. c #14A22E",
"j. c #1CA42F",
"k. c #1CAA2D",
"l. c #1DA330",
"z. c #0FA02E",
"x. c #22A62F",
"c. c #24AA2F",
"v. c #2CA82F",
"b. c #2CA234",
"n. c #26A930",
"m. c #2BAC31",
"M. c #29A334",
"N. c #32AE31",
"B. c #39A736",
"V. c #2BB232",
"C. c #36B231",
"Z. c #3BB332",
"A. c #38BA31",
"S. c #32AB2F",
"D. c #448B2C",
"F. c #5C852C",
"G. c #5F892D",
"H. c #46972E",
"J. c #498436",
"K. c #5B8332",
"L. c #578733",
"P. c #469A32",
"I. c #599634",
"U. c #618C2D",
"Y. c #65912F",
"T. c #648D35",
"R. c #6B9935",
"E. c #709E37",
"W. c #48A835",
"Q. c #51AE32",
"!. c #56A736",
"~. c #43B633",
"^. c #45B933",
"/. c #4CBB34",
"(. c #4CB438",
"). c #54BD34",
"_. c #59BF35",
"`. c #56B334",
"'. c #4AA12D",
"]. c #77A838",
"[. c #67BB3C",
"{. c #7EB23B",
"}. c #74B638",
"|. c #6BA438",
" X c #2FC133",
".X c #49C335",
"XX c #55C135",
"oX c #5AC135",
"OX c #5AC638",
"+X c #5BD338",
"@X c #62C536",
"#X c #65C539",
"$X c #6AC53A",
"%X c #6CC939",
"&X c #65C937",
"*X c #74CC3B",
"=X c #7BCE3C",
"-X c #7AC33C",
";X c #69D739",
":X c #7DD23D",
">X c #72D43A",
",X c #6DE53A",
"<X c #1B8241",
"1X c #218541",
"2X c #6BC640",
"3X c #7ACB43",
"4X c #7DD442",
"5X c #85BB3B",
"6X c #82B63C",
"7X c #8CC53F",
"8X c #8FC93F",
"9X c #81CC3D",
"0X c #91CC3F",
"qX c #84D23E",
"wX c #8AD43F",
"eX c #86DB3E",
"rX c #91DD3E",
"tX c #87B842",
"yX c #8BC941",
"uX c #93CE40",
"iX c #94CC4E",
"pX c #8CD541",
"aX c #87D642",
"sX c #93D541",
"dX c #98D642",
"fX c #95D942",
"gX c #9CDB43",
"hX c #97DA4A",
"jX c #A2DD44",
"kX c #A3DE4B",
"lX c #97E345",
"zX c #8DE843",
"xX c #AAE246",
"cX c #ABE24A",
"vX c #A6E648",
"bX c #B3E54E",
"nX c #B1ED4F",
"mX c #B9E752",
"MX c #B7E752",
"NX c #AAF44F",
"BX c #C4EC57",
"VX c #C3F355",
/* pixels */
"gXgXgXgXgXgXgXgXgXgXgXgXgXgXgXgXgXgXgXgXgXgXoXgXgXgXgXgXgXgXgXgXgXgXgXgXgXgXgXgXgXgXgXgXgXoXgXgXgXgXgXgXgXgXgXgXgXgXgXgXgXgXgXgX",
"gXgXgXgXgXgXgXgXgXgXgXgXgXgXgXgXgXgXgXgXgXgXoXgXgXgXgXgXgXgXgXgXgXgXuX..gXgXgXgXgXgXgXgXgXoXgXgXoXgXgXgXgXgXgXgXgXgXgXgXgXgXgXgX",
"gXgXoXgXgXgXgXoXoXgXgXgXgXgXgXgXgXgXoXoXoXoXgXgXgXoXgXgXgXgXoXoXgXgXK.E 5XgXgXgXgXoXoXoXoXgXoXoXgXgXoXgXgXoXgXgXgXoXgXgXgXgXoXoX",
"oXgXgXgXgXgXgXgXoXoXoXgXoXgXgXgXgXgXgXgXgXgXgXoXgXgXgXgXgXgXgXoXoX`.R ;...gXgXgXgX5XK.K.{.6XE.5XgXgXgXgXgXgXgXoXgXgXgXgXgXgXgXoX",
"gXoXoXgXgXgXgXgXgXgXgXgXgXgXgXgXgXuX..gXgXgXgXgXoXoXgXgXgXgXgXgXgXT.8. Xv 8XdX{.@.` 3XfX] ] |.Y.7XgXgXgXgXgXgXgXoXoXgXgXgXgXgXgX",
"gXoXoXoXgXgXgXgXgXgXgXgXgXgXgXgXgXK.E 5XgXgXgXgXoXoXoXgXgXgXgXgXgXv V.@X,.{ L.I.=X[.3XvXaX4XzX!.I.gXgXgXgXgXgXgXoXoXoXgXgXgXgXgX",
"gXoXgXgXgXgXgXgXgXgXgXgXgXgXgXgX8XR ;...gXgXgXgXgXgXgXgXgXoXgXgX..P.*XwXS.h f.OXlXnXcXjXbXBXvX&XD.6XoXgXoXgXoXgXoXgXgXgXgXgXgXgX",
"oXoXgXgXgXgXgXgXgXgXgXgXgXgXgXgXT.8. Xv 8XgXgXgXgXgXgXgXgXoXgX..g.lX=XsX|.! OX>XsXbXmXMXmXbXxXlX$XL.Q.oXgXoXgXoXoXgXgXgXgXgXgXgX",
"gXgXgXgXgXgXgXgXgXoXgXgXgXgXoXoXv V.@X,. .gXgXgX7XW oXoXoXgXW 2.:X=XgX}.y.] [.eXwXgXcXmXmXcXcXlX>XH.D.oXoXoXgXgXgXgXgXgXgXgXgXgX",
"gXoXgXgXoXgXgXoXgXgXgXgXgXgXgXE P.*XwXZ.G 5XgXgX..G ].gXgX#.K _ *X=X|.J.J.!.pXfXkXmXbXgXfXkXmXNX2X] K.7XgXgXgXgXoXgXgXoXgXgXgXgX",
"gXgXoXoXoXgXoXgXoXoXgXgXgXgX..g.lX:XsXpX,.#.gX6XG j.Q gXgX].7 u.^.Q.+.aXNXhXgXmXBXBXfX$XqXgXfXnXiXJ.J.L.|.dXgXgXgXoXoXoXgXoXoXgX",
"oXgXoXoXoXoXoXgXoXoXoXgXgX..2.:X=XjX=X_.:X'...N x..XT R.gX8XR m.b.( a.%XeXwXfXmXBXbX*XoXsXbXhXhXkXsX4X;XI.E.oXoXgXoXoXoXoXoXoXoX",
"gXoXoXoXgXgXgXgXoXgXgXgX#.K _ *X=XgX$XC.@XXX,.m &XwXC.m 5Xm V.#Xy.!.;X&X_.oX%X4XsXaX#XoX:XkXhX*XqXrX>X+XW.( 7XgXoXoXoXgXgXgXgXgX",
"gXgXgXgXgXgXgXoXoXgXgXgX].7 u./.OXpXqXC.OXE K c Y.fX:Xt.h V.=X[.W (.>X*X*X@XXX$X=X*XoXoX@X#X@XoX@X*XeX%X! W T.6XgXgXgXgXgXgXgXgX",
"oXgXgXgXgXgXgXgXgXgXgXgX8XR m.N.%XgX*XpXfX).v ..gX*X'.m q.L ;.( y.(.OX%XdX=X).*XjXsX*X=X*X/./.@X).$XvXaXP.!.[.( 7XgXgXgXgXgXgXgX",
"gXoXoXoXgXgXgXgXoXgXgXQ.m V.#X/.gXpX=XgX*XpXz.E 9X*Xu.g 2 h I.`.OXoX).#XsXsX@X#XqXaXqXfXwX$X*X*XoX=XjX*XXX;X,XH.'.oXoXgXgXgXgXgX",
"gXoXoXoXoXgXgXgXgXoXQ.h V.=X%XqXjX*XqXwXoX*XW.:.m }.*X-Xg G $X;XOXoX@X=X=XqXwX=X@XoX%X=X=XpXpX%X$XqX9XOXXX+X&XX.Q.oXoXoXgXgXgXgX",
"gXoXoXgXgXgXgXoXgX'.h q.L j.^.@X=XoXXX*XoXoX/.K e.m 6XQ 2.( a.OXoX).$XqX%X$XwXpX=X%X%XoXoX=X%XXX%X=X%X*X%X&X[.` ( P.sXgXgXgXgXgX",
"gXoXoXoXgXgXoXgXoXP.g 1 T V.=XoXZ.XX$X:X$X*X>Xy.1 m n I p.W J.9X*XoXoX%X@XoX#X%XwXfX=X@XoX@X@X*X=X%X*XpXqX>X[.] a.H.D.gXgXoXoXgX",
"oXoXoXgXgXgXgXgXgXgXsXN <.%XxX*XN.@X*XgXx.=XfX).m R J x m $XdXxXqXoX#X$XoX#X*X#X9XsX=X:XqX%X*XpXqX%X%X%X%X=X*XoX.XB.+.gXgXgXgXgX",
"gXoXgXgXgXgXgXoXgXgX .2.OX#X=Xm.^.qX@XfX/.C.wX:X,.m b v ] zXnXjXwXOX=XgXpXqXsXqX%X#X#XwXjX=XOX%X*X*X@X/.*XqX&X.XV.P F {.gXgXgXgX",
"gXoXoXgXgXgXgXgX).m I b._.%X).~.oXqXoX*X@XZ.).oX.X<.b h p.#XfXqX=X#X$XgXjXwXwX=XoX/.#XsXjX=XOXOX%X=X*X*XwX=XoXV.9.c A ` gXgXgXgX",
"gXgXgXoXgXgXgXgXR J x G /.@X@XoXXX@XoX).oXoXoXXXm.3.2.2 i.XX=X*X#X=X#XoX*X*X$X%X@XoX#X=X=XpXfX=X@X%X=XfXqX*X*XZ.r.P U k ].uXgXgX",
"oXoXoXgXgXgXgXgXQ.7 h c.Z.%XpX*XXXoXZ.~.oX@XsXpX^.G z g 2 ~.@XqX*XwXwX@X@X%X@X$X=X%X)./.$XgXxX=X/.oX=XgXfXpX:X~.w.N.b.J ` I.dXoX",
"gXgXgXgXgXgXgXgXoXW s.XXqX).%XfX^.^.^.j.oX@X=XwX*X,.$ g K N.OXqX=X*XfXgXwX=X$XOX%X*XoX).%XqX:X#X).@XqXfXjX=X~.^.^./.s.U &.F gXgX",
"gXgXgXgXgXgXgXoX( ;.V./.)./.fX$Xc.Z.@XZ.~.@XN.^.qX^.' l W.%X#X/.@X@X*XxXfX*X*X#XoX*X*X*XqX%X).*X:XqXqXqXwXoXx.~.A.B.5.4.) Z {.gX",
"gXoXgXgXgXgXdX@.8.<.v.&X).Z.oX^.m.oXOXoX/.oXXXZ.).@XOX' m $X%X~./.oX@XwXgXfXgXwX$X%XqXsXwX@X@XfXxXwX@XoX@X^.j.j.c.Z.p.1.J J F gX",
"gXgXoXoXoXgXuXN g l b.C.:.Z.oX^.oXoXN./.oXoXOXoXoXA.G R h m X.L.g.f./.@X=XpXsXwX*X*XwXqXoX^.oXqXsXwX%X~.m.j.h.S.~.m.Y P U <Xk gX",
"gXgXgXgXgXgXgXuX7 2.h.:.<.~.@X).oXoXZ.~.OX^.m.).Q.( {.lX$X-XbXVX{.E.! b./.@X@X@X@X@X%X/.j.h.Z.oX^._.*X^.<.>.h.^.XXm.d.P U P F gX",
"gXgXgXgXgXgXuXm f.q.<.I M.@XC.j.).oX~.oXoXc.r.E y.lXVXcXgXaX3XcXvXvX}.y.g./.).Z.N.oXoXm.:.:.c.n.:.x.).~.h.:.c./.W.).~.7.H B 5XgX",
"oXoXgXgXgXuXm B.p.3.3.2.N.N.:.<.).m.:./.^.<.h Q.%XcX4XN.#XpX2XmX=XwXvXvXy.u./.~.h.N.).N.m.m.h.l.C.).oXN.h.C.^.f.i.b.j.5.S z ].gX",
"oXoXoXgX7X2 ) ' l q.h.h.c.0.<.m.m.<.:.^.m.E tX%X%X*XZ.2XBXBXbXaX=XjXgXmXyXt.t.t.>.c.Z.m.Z.Z.~./.Z.m.n.h.0.p.w.2.4.<.3.U U <Xz gX",
"gXgXgXgXK.n N 8 K h.h.h.h.5.q.j.:.h.<.N.,.T.lXfXmX3X/.%XgXpX%X~.*XMXhXvXyXE `.! m.j.:.x.Z.m.N././.Z.C.b.i.3.<.3.e.0.5.e.H ) B gX",
"gXgXgXgXgXgXdXF ,.m.j.h.5.6.h.j.N.<.h.>.! hXl.=XbXkX*X/.).#Xj.Z.cXBXpXm.$XgXlX`.t.Z.l.l.j.h.j.j.m..X(.p.d.~.p.4.0.5.P L A V @.gX",
"gXgXgXgXgXyXm 0.C.Z.h.q.3.h.:.~.Z.<.<.s.D..Xx.N.sXcX3Xl.h.n./.fXBX3XZ.m.hXxXjX&XE Z./.x.h.~.OX~.c.Z.(.W.).(.5.4.0.5.S J S B Q.gX",
"gXgXoXgX8Xm 0.q.p.p.q.q.<.<.x.N.<.<.<.( Z.x.).x.#XgX*X#X/./.=XsX=XZ.@XcXxXwXOXC.E oX).m.x./.@XZ.c././.b.j.s.U 1.q.3.S S A ` sXgX",
"oXgXgX7Xb -.J K =.I <.c.j.<.h.h.h.6.,.G m.:.m.OX^.*XfXoXoXqX=X@XoXXXZ.~.@Xw.9.h.T 8.N.).).~.C.j.w.s.l.2.2.e.) A _ ) A H ) ` uXgX",
"gXoX).n 8 b > K &.2.c.XXl.<.<.<.q.e.T T j.4.2.Z.j.j.^.).oXoX@X~.Z.j.x.Z.w.I 3.h.<.x f.C.k.z.9.0.2.4.4.5.P ) A H P A H U 5.z 7XgX",
"gXoXoX).gX5Xm &.H q.Z.b.4.h.0.e.h.h.G A.^.I P w.Z.m.h.n.N.).oXj.n./.^.j.4.4.w.c.w.h 0.:.<.0.2.0.q.6.5.5.H C A J J A H U ' k 7XoX",
"gXoXgXgXdXb *.P U 5.4.I 5.h.e.2.h.<.G 2.A.W.U I B._.^./.Z.j.j.C./.m.w.2.:.m.).B.c Y 0.3.U 5.e.q.0.3.6.0.0.Y J J A ) S ) A F `.gX",
"oXoXgXgXT.z 1XM.4.) J U 5.q.U U 5.0.G J s.^.<.s.(.d.B.).d.w.Z.).d.I 7.q.Z./.m.J H h 0.5.P 5.3.5.e.h.e.5.1.Y S A A A ) z m P._.gX",
"gXgXgXT.k *.f.s.P H 5.5.U U P U &.Y h *.H 5.<.C.W.XX~.d.p.W.f.s.5.f.Z.k.m.5.4.P Y c 5.2.2.0.e.6.q.q.6.&.A A S S A C J x ].gXgXgX",
"gXoXT.k *.U U J P U 5.U U J J U 6.S x Y 5.J ) L H B.^.).^.m.n.s.0.n.~.3.H P 0.7.h x J 3.1.P P P Y U P S C C H U S S P P K.dXgXgX",
"gXK.V -.P S V ) U U U U U P P e.q.P U c Y q.3.3.3.w.:.j.<.2.P _ /.^.p.A J h.0.5.K j S ) S A A S S A A A A S J P S ) &.P #.dXgXoX",
"oX .1 < < < 1 P 0.e.P ) P 6.U e.6.&.3.3.j P 0.Y 2.^.C.Z.l.j.e.e.b.f.P q.0.1.e.U &.1 A S S A A H ) C A J P J J ) A S A F R.gXoXgX",
"gXoXQ.Q.0X{ z e.0.U ) H 5.h.U U U U 5.;.g S ) U 0.' M.w.p.W.' 2.0.I 4.2.1.L h.U j A S ) ) ) J P S C ) *.P ) S A A F +.E.uXoXoXgX",
"gXgXgXgXK.z U 5.*.U U U 0.0.U U U U U h C U 3.U U H H U P H J <.Y P P P 0.6.P S 1 A S S A ) J ) A A ) ) S A A C ` ].yXgXgXgXoXgX",
"oXgXgX@.z <XU P J ) ) 6.5.U P U e.P P P z V 5.P J 6.P J 5.0.0.U J q.3.U U ) V 1 > 8 V A %.A j V %.%.V Z Z Z F +.{.gXgXgXgXgXgXoX",
"gXoXW z U ) ) S C A P U U J A P 2.5.S U U c 3 S P 0.q.Y A L Y _ ) L S A j B , % o + % 8 1 8 % 4 V D @.].T.@.E.yXgXgXgXgXgXgXgXgX",
"gXQ V S S A B C C H U J H C C J U P A H U S k 1 z ) 5.J <   , < B C A 1 k > o O O O o + + + O o > #.yXgXdXuXoXoXgXgXgXgXgXgXgXgX",
"gXW 2 8 8 8 1 A H S S C C H A S U ) C A J A A V l 3 j V @ @ # 4 j k 3 C ) 8 + * * & O O O * * o > , Y.gXgXgXgXgXgXgXgXgXgXoXoXgX",
"gXoX_.oXgX{ C P J A A C S U A C S S A S A S J C A A B 1 8 6 5 4 S j 1 A A > & = = * & & * w q = o.{.6XgXgXgXgXgXgXgXoXoXoXoXoXgX",
"oXoXoXgX#.C A ) A < V A J J A A H C ) H A A P S A S H C B 9 5 < j < . j S > * r q * * * * q w = o.gXgXgXgXgXgXgXgXgXgXgXgXgXoXgX",
"gXoXdX} C S A 1 N , C A A A A J J A A ) V V ) J B A U _ 3 4 5 < , , # . , % e r q = q = * * r e d 5XdXsXgXgXgXoXgXgXgXgXgXgXgXgX",
"gXoX).@.b b n E.n V j j A C < S j 1 A A 1 , C A < , A S A 4 9 @     %   . * r w * q q q = * r y : o.'.H.Q.).).oXoXgXgXgXgXgXgXoX",
"gXgXgXoXgXgXgX6X..( 8 S A , , A < . j S j . 2 A V n b 3 A 8 5 @ @ .   . + r q & * * * w w * w y w : O.U.D.H.P.).gXoXgXgXgXgXoXgX",
"oXoXoXgXgXgXgXgXoXo.3 j m M   1 , # . > 1   W > 2 $ ; p > 4 0 . X .   + e r * * q & & w r q * * w q : | U.G.G.{.0XgXgXgXgXoXoXgX",
"gXgXgXgXgXgXgXgXuX@.o.E.5Xp # @ @ 4 @ #   . O.} } M M | a % 9 % a a ; - - & = = - % - = t = - - = = : { G.G.F.F.].dXgXgXgXgXgXgX",
"gXgXgXgXgXgXgXgXgXgX].U.U.p # 4 @ 4 @ 6 %   G.U.F.| } F.M 5 0 5 f i d f p p p p p p p p f | | | | | O.F.G.U.G.o.y.sXgXgXgXgXgXgX",
"gXoXgXgXgXgXgXgX0XF.F.G.Y.p % ; % 5 % ; % % G.G.^ G.| { 9 9 5 6 ; f i i i d M M d d } s F./ U./ / / / / G.G.F.F.].).oXgXgXoXoXoX",
"gXgXoXoXoXgXgXgXR.F.G.^ G.~ o.~ ~ o.F.F.o.o.G.F.| s i 4 5 4 6 4 u % ; a M O.} } O.W ~ ~ ^ ^ ^ ^ ^ ^ ^ ^ ~ F.F.U.8XgXgXgXgXgXgXgX",
"gXgXgXgXgXgXgXgX6X~ ~ ~ ^ ^ ^ ^ ^ U.U.U.U.U.O.M d d p p { { ; ; p p f d M O.F.G.G.G.G.G.G.G.G.G.G.F.F.F.F.R.5XuXgXgXgXgXgXgXgXgX",
"gXgXgXgXgXgXgXgXgX5XU.Y.F.G.F.F.F.G.F.F.F.F.} a f M { G.Y.U.o.| s i d d d M ~ G.G.G.G.G.G.F.F.F.F.F.F.U.6XdXoXgXgXgXgXgXgXoXgXgX",
"oXoXgXgXgXgXoXgXgXgX0XuX{.U.5X5XY.G.|.].5XR.~ F.| o.o.F.F.~ F.F.~ s [ f f s ~ ~ F.F.F.F.G.~ ^ Y.Y.].0XdXgXoXgXgXgXgXgXgXgXgXoXoX"
};
