/* XPM */
static char *_6c9b3962540454bd7d3e260407a8257l4s6s6TNPBqEyVZc[] = {
/* columns rows colors chars-per-pixel */
"64 64 225 2 ",
"   c #150101",
".  c #1C0403",
"X  c #1F0804",
"o  c #240505",
"O  c #2B0604",
"+  c #2C0C05",
"@  c #2F0909",
"#  c #330602",
"$  c #330906",
"%  c #390A06",
"&  c #320A09",
"*  c #3B0A09",
"=  c #2B1906",
"-  c #381507",
";  c #262709",
":  c #3D2D10",
">  c #470F08",
",  c #4B0E08",
"<  c #4A130A",
"1  c #56190D",
"2  c #5B1E11",
"3  c #593010",
"4  c #693C09",
"5  c #602113",
"6  c #3D5015",
"7  c #55511B",
"8  c #664409",
"9  c #734715",
"0  c #56681E",
"q  c #57711F",
"w  c #586D20",
"e  c #467C20",
"r  c #577721",
"t  c #607F24",
"y  c #834911",
"u  c #96640E",
"i  c #98640E",
"p  c #8B6418",
"a  c #8B6A1C",
"s  c #926611",
"d  c #AE6818",
"f  c #B46D19",
"g  c #BB731A",
"h  c #8A6B22",
"j  c #876F2A",
"k  c #8E7427",
"l  c #957A22",
"z  c #8A7637",
"x  c #B27E21",
"c  c #C47B1C",
"v  c #658527",
"b  c #7A8229",
"n  c #77982E",
"m  c #4DA02B",
"M  c #54AD2F",
"N  c #52B230",
"B  c #58BE34",
"V  c #7AA531",
"C  c #67BE34",
"Z  c #7ABD33",
"A  c #59C135",
"S  c #60C239",
"D  c #72C236",
"F  c #9A872A",
"G  c #81942E",
"H  c #9F9230",
"J  c #B88721",
"K  c #BA9427",
"L  c #9DB42F",
"P  c #89B933",
"I  c #89BD39",
"U  c #ADA72A",
"Y  c #A5BB39",
"T  c #BDBE36",
"R  c #CE831D",
"E  c #D1851D",
"W  c #DA8D1E",
"Q  c #D4921E",
"!  c #E3951F",
"~  c #C68F22",
"^  c #D78D24",
"/  c #C89827",
"(  c #D89725",
")  c #D48E3C",
"_  c #D49333",
"`  c #D79935",
"'  c #E59720",
"]  c #E79C22",
"[  c #E99D23",
"{  c #E19E3A",
"}  c #C5AB2D",
"|  c #D7A629",
" . c #DDAB2C",
".. c #CAB62F",
"X. c #CABB34",
"o. c #DAB832",
"O. c #E4A325",
"+. c #EAA426",
"@. c #E4A529",
"#. c #E6AD2D",
"$. c #EBAB29",
"%. c #E6B22D",
"&. c #EDB22C",
"*. c #F0B02E",
"=. c #E5AC34",
"-. c #EAAB39",
";. c #E5B433",
":. c #EBB433",
">. c #EDBB33",
",. c #EDBB38",
"<. c #F2BE35",
"1. c #84C336",
"2. c #8EC53B",
"3. c #93C53B",
"4. c #91CA3D",
"5. c #ADC739",
"6. c #B6C73A",
"7. c #BBCC3C",
"8. c #A5D03F",
"9. c #ABD23F",
"0. c #B3D33F",
"q. c #C8C93B",
"w. c #D8C739",
"e. c #CAD23E",
"r. c #D4D23F",
"t. c #ECC436",
"y. c #E4C53B",
"u. c #ECC33A",
"i. c #ECCB3C",
"p. c #F1C234",
"a. c #F5C736",
"s. c #F4C739",
"d. c #F3CC3A",
"f. c #FECA3B",
"g. c #ECD13D",
"h. c #F4D33D",
"j. c #FCD23D",
"k. c #A2BE4D",
"l. c #D69B46",
"z. c #CDBF5F",
"x. c #ECB346",
"c. c #EAAE5F",
"v. c #EBBF53",
"b. c #ECB670",
"n. c #93C144",
"m. c #97D340",
"M. c #99D641",
"N. c #9CDB43",
"B. c #A4D641",
"V. c #ABD541",
"C. c #A3DA43",
"Z. c #A9DA43",
"A. c #ABDC4A",
"S. c #BAD543",
"D. c #B3DA42",
"F. c #B6D846",
"G. c #BCDA43",
"H. c #B6E16D",
"J. c #C7CC43",
"K. c #C5D845",
"L. c #CDDA42",
"P. c #D2D242",
"I. c #D8D948",
"U. c #CAD755",
"Y. c #E8C745",
"T. c #F8C948",
"R. c #E7D847",
"E. c #F4D643",
"W. c #FAD742",
"Q. c #F6DC43",
"!. c #FADA42",
"~. c #F6D94A",
"^. c #EACC5A",
"/. c #EADB54",
"(. c #F9D656",
"). c #FADB55",
"_. c #DDE04A",
"`. c #C8E158",
"'. c #D6E257",
"]. c #EBE14A",
"[. c #F7E146",
"{. c #F6E24C",
"}. c #EAE458",
"|. c #F6E453",
" X c #F7E65A",
".X c #F8E559",
"XX c #D0CE64",
"oX c #EEC66C",
"OX c #EADB65",
"+X c #F8D965",
"@X c #EBDB77",
"#X c #F8DC79",
"$X c #CBE16B",
"%X c #DEE26A",
"&X c #E5E36A",
"*X c #F6E363",
"=X c #F9E667",
"-X c #F8E86D",
";X c #F7E677",
":X c #F8E673",
">X c #F4E976",
",X c #F9EA7D",
"<X c #E7DA80",
"1X c #FADA87",
"2X c #FCDC94",
"3X c #FADD98",
"4X c #D3E88C",
"5X c #E6E888",
"6X c #F9E585",
"7X c #F7EB82",
"8X c #F9EE83",
"9X c #F9EB8D",
"0X c #F9ED92",
"qX c #FCE69A",
"wX c #FAEE9A",
"eX c #FAF19D",
"rX c #DBEBA1",
"tX c #EAECA3",
"yX c #FAEDA6",
"uX c #FBEEAA",
"iX c #FBF5AC",
"pX c #FCF4B1",
"aX c #FCF6B9",
"sX c #FCF6C5",
"dX c #FCF8D7",
/* pixels */
"N.N.N.N.N.N.N.N.N.N.N.N.N.N.N.N.N.N.N.N.N.N.A N.N.N.N.N.N.N.N.N.N.N.N.N.N.N.N.N.N.N.N.N.N.A N.N.N.N.N.N.N.N.N.N.N.N.N.N.N.N.N.N.",
"N.N.N.N.N.N.N.N.N.N.N.N.N.N.N.N.N.N.N.N.N.N.A N.N.N.N.N.C.B.9.9.9.9.V.C.N.N.N.N.N.N.N.N.N.A N.N.A N.N.N.N.N.N.N.N.N.N.N.N.N.N.N.",
"N.N.A N.N.N.N.A A N.N.N.N.N.N.N.N.N.A A A P T } / ~ R R R R R R R R R R R R ~ / } U L C A N.A A N.N.A N.N.A N.N.N.A N.N.N.N.A A ",
"A N.N.N.N.N.N.N.A A A `.%X}.}.K.N.N.N.C.( f d f g g c c R R E E E E R R R c c g f d d R 7.N.N.N.F.}.}.&X'.C.N.A N.N.N.N.N.N.N.A ",
"N.N.N.N.N.N.N.N.N.N.4X-X/.I./..XG.N.N.Z.f.<.;._ _ _ l._ ^ W W W ^ W W W ^ l.l._ ` =.:.<.P.N.N.Z.|.|.I.R. X5XN.N.A A N.N.N.N.N.N.",
"N.N.N.N.N.N.N.N.N.H.0XI.N.N.}.|.I.N.N.Z.f.f.W.@.^ [.).#XyXyX9X#XoXb.b.c.-.$.>.&.+.j.j.f.r.N.N.G.|.|.Z.N.J.-X4XN.A A A N.N.N.N.N.",
"N.N.N.N.N.N.N.N.N.rX XB.N.N.I.R.S.N.N.Z.f.W.!.#.@.[..X,XpXiX8X.Xd.$.' ] +.&.p.>.+.W.j.f.r.N.N.C.R.R.C N.A /.tXN.A N.N.N.N.N.N.N.",
"N.N.N.N.N.N.N.N.N.tX].N.N.N.N.U.'.N.N.Z.f.~.|.:.#.[..X,XpXiX8X.Xd.$.' ] +.&.p.<.$.!.j.f.6.N.N.`.&XN.A A N.L.0XA A N.N.N.N.N.N.N.",
"N.N.N.N.N.N.N.N.N.5X].N.N.N.A 2.+XI.N.Z.f.). X:.:.[..X,XpXiX8X.Xd.$.' ] +.&.p.s.$.!.j.f.P.N.K..X$XA A A A K.,XC.N.N.N.N.N.N.N.N.",
"N.A N.N.N.N.N.A N.&X{.N.N.N.N.A ..T.I.1.f.).=Xs.>.[..X,XpXiX8X.Xd.$.' ] +.&.p.s.&.!.j.f.P.'. X/.C.N.N.N.N._.*XN.A N.N.A N.N.N.N.",
"N.N.N.N.N.N.N.N.A K.{.Z.N.N.N.N.C. .&.d.f.).:Xh.p.[..X,XpXiX8X.Xd.$.' ] +.&.p.s.>.!.j.f.+X+Xi.V.N.N.N.N.N.].R.N.N.A A A N.A A N.",
"A A N.N.N.N.N.N.A 3.[.L.N.N.N.N.N.N...] T.(.,XQ.d.[..X,XpXiX8X.Xd.$.' ] +.&.p.p.<.!.j.T.a.w.Z N.N.N.N.N.D.Q.7.A N.A A A A A A A ",
"N.N.N.N.N.N.N.N.A N.R.R.N.N.N.N.N.N.N.9.3X(.9XQ.h.[..X,XpXiX8X.Xd.$.' ] +.&.p.p.p.!.j.3Xq.N.N.N.A A N.N.I.Q.V.N.A A A N.N.N.N.N.",
"N.N.N.N.N.N.N.A A N.L.h.G.N.N.N.N.N.N.N.1X+XwX[.Q.[..X,XpXiX8X.Xd.$.' ] +.&.p.p.p.!.j.2XD.N.N.N.N.N.N.Z.h.w.N.N.N.N.N.N.N.N.N.N.",
"A N.N.N.N.N.N.N.N.N.C.i.g.N.N.N.N.N.A N.@X#XyX|.Q.[..X,XpXiX8X.Xd.$.' ] +.&.p.p.d.!.j.3XZ.N.A N.N.N.N.r.a.P N.A N.N.N.N.N.N.N.N.",
"N.A A A N.N.N.N.A N.N.Y s.e.N.N.A N.N.N.I.1XuX*X[.[..X,XpXiX8X.Xd.$.' ] +.&.p.p.d.!.j.2XN.N.N.N.N.N.D.p.X.N.A N.A A A N.N.N.N.N.",
"N.N.N.N.A N.N.N.N.A A A o.t.1.N.N.A A N.r.2XuX:XQ.[..X,XpXiX8X.Xd.$.' ] +.&.p.a.h.!.j.3XN.N.N.N.N.C.t.%.C.N.N.N.N.N.A A N.N.N.N.",
"N.N.N.N.N.N.N.A N.A A A Z %.w.S N.A A A K.2XyX7XQ.[..X,XpXiX8X.Xd.$.' ] +.&.p.d.h.!.+X<XN.N.N.N.N.w.&.6.N.N.N.N.N.N.N.N.N.N.N.N.",
"N.N.N.N.N.N.A N.A A A N.N.T &.q.N.A N.N.D.1XqXwX[.[..X,XpXiX8X.Xd.$.' ] +.&.p.d.Q.!.1XJ.N.A N.A S.&.} N.A A N.N.N.N.N.N.N.A A N.",
"A N.N.N.N.N.N.N.N.N.N.N.N.N.| x.n.A N.N.N.(.6XpX[.[..X,XpXiX8X.Xd.$.' ] +.&.p.d.Q.!.(.5.A N.A Z.v.| C A A A N.A N.N.N.N.N.N.N.N.",
"N.A N.N.N.N.N.A N.N.N.N.N.N.B.O.oXC.N.N.N.g.+XdX[.[..X,XpXiX8X.Xd.$.' ] +.&.p.d.Q.!.j.1.A A A XX+.5.N.N.N.A N.N.N.N.N.N.N.N.N.N.",
"N.A A N.N.N.N.N.A A A N.N.N.N.6.$.z.N.N.A P.W.dX.X[..X,XpXiX8X.Xd.$.' ] +.&.p.d.Q.!.j.N.N.N.U.x.X.N.N.N.N.N.N.N.A A N.N.N.N.N.N.",
"N.N.N.A N.N.N.N.N.N.N.N.N.N.N.N.X.-.Y A A K.W.sX:X[..X,XpXiX8X.Xd.$.' ] +.&.p.h.Q.!.R.N.N.V.x.o.N.N.N.N.N.N.A N.N.N.A N.N.N.N.N.",
"A A A N.N.N.N.N.A A N.N.N.N.N.N.C o.@.Z A D ).wXwX[..X,XpXiX8X.Xd.$.' ] +.&.p.h.Q.).L.N.N. .>.Z A N.N.N.N.A N.A A A N.N.N.N.N.A ",
"N.N.N.N.N.N.N.N.A A A N.N.A A N.N.P >.| N.N.OX:XiX[..X,XpXiX8X.Xd.$.' ] +.&.p.h.Q.+X1.N.X.>.5.N.N.N.N.N.A A N.N.N.N.N.N.N.N.N.N.",
"N.N.N.N.N.N.N.A A A N.N.N.N.N.N.N.N.e.&.X.N.L.6XiX*X.X,XpXiX8X.Xd.$.' ] +.&.p.h.Q.@XN.6.+.w.A N.N.N.N.N.N.N.N.N.N.N.N.N.N.N.N.N.",
"N.A N.N.N.N.N.N.A N.N.N.N.N.N.N.N.N.N.w.] 9.Z.;X0X,X.X,XpXiX8X.Xd.$.' ] +.&.p.h.:XI.C.| t.C.A N.N.N.N.N.N.N.N.N.A N.N.N.N.N.N.N.",
"N.N.A A A N.N.N.A A N.N.N.N.N.N.N.N.N.B.>.| N.&X7X0X.X,XpXiX8X.Xd.$.' ] +.&.p.h.6XZ...*.7.N.N.A A A N.N.A A A N.N.A A A N.N.N.N.",
"N.N.N.N.N.N.N.N.N.N.A N.N.N.N.N.N.N.N.N.q.$.q.G.9X9X-X,XpXiX8X.Xd.$.' ] +.&.p.+X%X0.+.w.N.N.N.N.N.N.N.N.N.N.N.N.N.N.N.N.N.N.N.N.",
"N.N.N.N.N.N.N.A A A N.N.N.N.N.A N.N.N.N.N.Y.v.r.;X7X7X,XpXiX8X.Xd.$.' ] +.&.p.#XR.Y.^.C.N.N.N.N.N.N.N.N.N.N.N.N.N.N.N.N.N.N.N.N.",
"A N.N.N.N.N.A N.N.N.N.N.N.N.N.N.N.N.N.N.N.^.{ :.i.,X7X7XpXiX8X.Xd.$.' ] +.&.T.OX#.) -.F.N.A A N.N.N.N.N.A N.N.A A N.N.N.N.A N.N.",
"N.N.N.N.N.A A N.N.N.N.N.N.N.N.N.N.N.N.N.N.Y.( @.y.I.>X7XpXiX8X.Xd.$.' ] +.&.Y.K.,.Q $.P A A A N.N.N.N.N.N.A A A A A N.N.A A A N.",
"N.A N.N.N.N.N.N.A N.N.N.N.N.N.N.N.N.N.N.N.G.i.g.D.C.}.,XeXiX8X.Xd.$.' ] +.oXS.N.L.R.L.N.N.N.A N.N.N.N.N.N.N.A N.N.N.N.N.N.N.N.N.",
"N.N.N.N.N.N.N.N.N.A A A N.N.N.N.N.A A N.N.N.N.N.N.N.A.>X>XeX8X.Xd.$.' ] b.XXN.A N.N.N.N.N.N.N.N.N.N.N.N.N.N.A N.N.A N.N.N.N.N.N.",
"N.N.N.N.N.N.N.N.N.N.N.N.N.N.N.N.N.N.N.A N.N.N.N.N.A N.A.OX*X,X.Xd.$.O.=.k.A A A A N.N.N.N.N.N.A N.N.A A A A N.A A N.N.A N.N.A N.",
"N.A N.N.N.N.N.N.N.N.N.N.N.N.N.N.A A A N.N.N.N.N.A N.A A S `.~.E.a.&.X.B.A A A A N.A N.N.N.N.A N.N.N.N.N.N.N.N.N.N.N.N.N.N.N.N.N.",
"N.N.N.N.N.N.N.A A N.N.N.N.A N.N.N.N.N.N.N.N.N.N.N.N.N.N.N.Z.O.( ^ E 8.N.N.N.N.N.N.N.N.N.N.A A N.N.N.N.N.N.N.N.N.N.N.N.N.N.N.N.N.",
"N.N.N.N.N.N.N.A A A N.N.A A A N.N.N.N.N.N.N.N.N.N.N.N.N.N.G.<.$.] ! 6.N.N.N.N.N.N.N.N.N.N.N.N.N.N.N.N.N.N.N.N.N.N.N.N.N.N.N.N.N.",
"N.N.N.N.N.N.N.N.N.N.N.N.N.N.N.N.N.A N.N.N.N.N.N.N.N.N.N.N._.9X1X&.+. .N.N.N.N.N.A N.N.N.N.N.N.N.N.N.N.N.N.N.N.N.N.N.N.A N.N.N.A ",
"N.N.N.N.N.N.N.N.N.N.N.N.N.N.N.N.N.N.A A A N.N.N.N.N.N.A Z.{.wXsX:Xs.$.Z N.N.N.N.N.A A N.N.A A A N.A N.A A A N.N.N.N.N.A N.N.A N.",
"A N.N.N.N.N.N.N.N.N.N.A A A N.N.N.N.N.N.N.N.N.N.N.A A A e.{.wXsX,XE.+.} A N.N.N.N.N.N.N.N.N.N.N.N.N.A N.N.N.N.N.N.N.A A N.N.A N.",
"N.N.N.N.N.N.N.N.N.N.N.N.N.N.N.N.N.N.N.N.N.N.N.N.N.N.N.G.Q.{.wXsX,XE.+.] 7.N.N.N.N.N.N.N.N.N.N.N.N.N.N.N.N.N.N.N.N.N.N.N.N.N.N.N.",
"N.N.N.N.N.N.N.N.N.N.N.N.N.N.N.N.A A N.N.N.N.A N.N.N.D.Q.Q.{.wXaX,XE.+.] $.0.A N.N.N.N.N.N.A N.N.N.N.N.N.N.N.N.N.N.N.N.N.N.N.N.N.",
"N.N.A N.N.N.A A N.N.N.N.N.N.N.N.A A A N.N.A A A N.G.h.!.Q.{.wXaX,XE.+.] $.>.G.N.N.N.N.N.N.N.A A N.N.N.N.N.N.N.A N.N.N.N.N.N.N.A ",
"A N.A N.N.N.A A A N.N.N.N.N.N.N.N.N.N.N.N.3.G t X.f.j.!.Q.{.wXpX,XE.+.] $.>.h.w.n G G N.N.N.N.N.N.N.N.N.N.N.N.N.A A A N.N.N.A N.",
"N.A A N.N.N.N.N.N.N.N.N.N.N.N.N.N.N.N.N.4.9 1 , y J #.s.Q.|.0XwX+Xu.] ' ^ ~ x y , 1 5 b N.N.N.N.N.N.N.N.N.N.N.N.N.N.N.N.N.A A N.",
"N.N.N.N.N.N.N.N.N.N.N.N.N.N.N.N.N.N.N.N.G < < > , , , 2 9 j z z p y 9 4 1 , , , > < < 2 4.A A A A A N.N.A N.A N.N.N.N.N.N.N.A N.",
"A N.N.N.N.N.N.N.N.N.N.N.N.A A A A A N.N.3 O O O # # # # # # # # # # # # # # # # # O O * v A A A N.N.A A N.N.N.N.N.N.N.N.N.N.N.A ",
"N.A A A N.N.N.N.N.N.N.N.A A A A N.N.A M % $ o o O O O O O O O O O O O O O O O O O o o O q N.N.N.N.N.N.N.N.N.N.N.N.N.N.N.N.N.N.N.",
"N.N.N.N.A N.N.N.N.N.N.N.N.N.N.N.N.N.N.2.* $ O O # 4 s p h h l F F H F k h a a % # o . o w N.N.N.N.N.N.N.N.N.A A N.N.N.N.N.N.N.N.",
"N.N.N.N.N.N.N.N.N.N.N.N.N.N.N.N.N.N.N.2.* $ O O 4 ( ,.y.y.y.y.i.i.u.;. .( ( ( J # o . o 6 N.N.N.N.N.N.N.N.N.N.N.N.N.N.N.N.N.N.N.",
"N.N.N.N.N.N.A A N.N.A A A N.N.N.N.N.N.2.* $ O O i u.!.[.[.[.[.Q.h.p.>.$.+.] ' | - o . o w N.N.N.N.N.N.N.N.N.N.N.N.N.A A A N.N.N.",
"N.N.N.N.N.N.N.N.N.N.N.N.N.N.N.N.N.N.N.2.* $ O O u d.Q.[.[.[.[.h.d.>.&.+.] ! '  .- o . o w N.N.N.N.N.N.N.N.N.N.N.N.N.N.N.N.N.N.N.",
"N.N.N.N.N.N.N.N.N.N.N.N.N.N.N.N.N.N.4.P * $ O o u d.(.[.[.[.Q.d.<.&.$.] ' ' $.#.$ o . o 0 4.M.N.N.N.N.N.N.N.N.A N.N.N.N.N.N.N.N.",
"N.N.N.N.N.N.N.N.N.N.N.N.N.N.N.N.N.N.7 % * $ O o u E.Q.[.[.Q.d.s.&.$.+.' ' ] +.;.+ o . o & * V N.N.N.A A A A A A A N.N.N.N.N.N.A ",
"N.N.N.A N.N.N.N.N.A N.N.N.N.N.N.N.I * O * $ O o u Q.[.[.Q.h.p.>.$.+.] ' ] ] +.;.+ . . o & O 7 N.N.N.N.N.A A A A N.A N.N.N.N.A N.",
"N.N.N.N.N.N.N.N.A N.A A A N.N.N.N.v O O * $ O o u Q.[.[.h.d.>.&.+.] ! ' ] [ +.;.+ . . o & o * I N.N.N.N.N.N.N.N.N.N.N.N.N.A A N.",
"N.N.N.N.N.N.N.N.N.N.N.N.N.N.N.N.m.- . O * $ O . 8  .E.E.i.u.,.>.,.,.:.=.=.:.:.K X . . o @ . O v N.N.N.N.N.N.N.N.N.N.N.N.N.N.N.N.",
"N.N.N.N.N.N.N.N.N.N.N.N.N.N.N.N.V @   o % $ O . . 8 s a h k l F F H F k h h a = . . . o O     : M.N.N.N.N.N.N.N.A N.N.N.N.N.N.N.",
"N.A N.N.N.N.N.N.N.N.N.N.N.N.N.N.v % & o .                                               o O & % M A A A N.N.N.N.N.A A N.N.A A A ",
"N.N.A A A N.N.N.N.N.N.A N.A N.A e % % % % $ O o o o o o o o o o o o o o o o o o o O O $ % % % % M A A A A N.N.N.N.N.N.N.N.N.N.N.",
"N.N.N.N.N.N.N.N.N.A A A A A A A m w = O O O O $ $ $ $ $ $ $ % $ $ $ $ $ $ $ % % % $ O O O O 6 v m.N.N.N.N.N.N.N.N.N.N.N.N.N.N.N.",
"N.N.N.N.N.N.N.N.N.N.N.N.N.N.N.N.N.N.M.I n w ;                     .                 ; r V 2.N.N.N.N.N.N.N.N.A N.N.N.N.N.N.A N.N.",
"A A N.N.N.N.A N.N.N.N.N.N.N.N.N.N.N.N.N.N.N.B 4.4.4.4.4.4.N 4.4.N N N 4.4.N N N 4.4.N.N.N.A A N.N.N.N.N.N.A N.N.N.N.N.N.N.N.A A "
};
